<svg width="52" height="42" viewBox="0 0 52 42" fill="none" xmlns="http://www.w3.org/2000/svg">
<path d="M13.4656 14.8834V12.7268C13.4656 9.40394 16.1597 6.70986 19.4825 6.70986H21.8893C22.2206 6.70986 22.491 6.98028 22.491 7.31155C22.491 7.64282 22.2206 7.91324 21.8893 7.91324H19.4825C16.8223 7.91324 14.669 10.0699 14.669 12.7268V14.8834L16.6499 12.9025C16.8865 12.6659 17.2651 12.6659 17.5017 12.9025C17.7383 13.1392 17.7383 13.5177 17.5017 13.7544L14.4932 16.7628C14.2566 16.9994 13.878 16.9994 13.6414 16.7628L10.633 13.7544C10.3963 13.5177 10.3963 13.1392 10.633 12.9025C10.8696 12.6659 11.2482 12.6659 11.4848 12.9025L13.4656 14.8834ZM42.3535 28.6208V30.7775C42.3535 34.1003 39.6594 36.7944 36.3366 36.7944H33.9299C33.5986 36.7944 33.3282 36.5239 33.3282 36.1927C33.3282 35.8614 33.5986 35.591 33.9299 35.591H36.3366C38.9969 35.591 41.1502 33.4344 41.1502 30.7775V28.6208L39.1693 30.6017C38.9327 30.8383 38.5541 30.8383 38.3175 30.6017C38.0809 30.3651 38.0809 29.9865 38.3175 29.7499L41.3259 26.7414C41.5625 26.5048 41.9411 26.5048 42.1778 26.7414L45.1862 29.7499C45.4228 29.9865 45.4228 30.3651 45.1862 30.6017C44.9496 30.8383 44.571 30.8383 44.3344 30.6017L42.3535 28.6208ZM33.7169 3.02535V4.7324L36.5394 3.28226V1.35211L33.7169 3.02874V3.02535ZM33.7169 15.2856L36.5394 13.8355V11.3983L33.7169 12.8485V15.2856ZM37.5028 13.778L41.2211 14.9747V12.4665L37.5028 11.2699V13.778ZM41.2211 15.982L37.5028 14.7854V19.6732H41.2211V15.982ZM36.5361 14.9172L33.7135 16.3673V19.6732H36.5361V14.9138V14.9172ZM33.7169 11.7668L36.5394 10.3166V7.87944L33.7169 9.32958V11.7668ZM37.5028 10.2592L41.2211 11.4558V8.94761L37.5028 7.75098V10.2592ZM33.7169 8.25127L36.5394 6.80113V4.36395L33.7169 5.81747V8.25465V8.25127ZM37.5028 6.74028L41.2211 7.9369V5.42873L37.5028 4.23211V6.74028ZM37.5028 3.22479L41.2211 4.42141V2.6231L37.5028 1.24732V3.22817V3.22479ZM45.1017 11.2935V19.6732H47.5558V12.098L45.1017 11.2935ZM44.1349 19.6732V11.3713L42.3299 12.267V19.6732H44.1349ZM30.962 11.3814V19.6766L32.7535 19.6766V12.2704L30.962 11.3814ZM29.9952 19.6732V11.2868L27.5242 12.098V19.6732H29.9952ZM24.6645 17.7532V19.6732H26.5609V17.7228L25.4724 17.4118L24.6645 17.7532ZM23.7011 17.1177L25.4183 16.3944L26.5609 16.7223V11.4017L30.5394 10.0969L32.7535 11.1955V2.47775L36.9248 0L42.1845 1.94704V11.2631L44.544 10.0935L48.5225 11.3983V16.7189L49.6651 16.391L51.3823 17.1144V20.6366L23.7011 20.6366V17.1144V17.1177ZM50.4155 19.6732V17.7532L49.6076 17.4118L48.5192 17.7228V19.6732H50.4155ZM10.633 24.3887V26.0958L13.4555 24.6456V22.7155L10.633 24.3921V24.3887ZM10.633 36.649L13.4555 35.1989V32.7617L10.633 34.2118V36.649ZM14.4189 35.138L18.1372 36.3347V33.8265L14.4189 32.6299V35.138ZM18.1372 37.3454L14.4189 36.1487V41.0366H18.1372V37.3454ZM13.4555 36.2806L10.633 37.7307V41.0366H13.4555V36.2772V36.2806ZM10.633 33.1301L13.4555 31.68V29.2428L10.633 30.693V33.1301ZM14.4189 31.6225L18.1372 32.8192L18.1372 30.311L14.4189 29.1144V31.6225ZM10.633 29.6147L13.4555 28.1645V25.7273L10.633 27.1808V29.618V29.6147ZM14.4189 28.1037L18.1372 29.3003V26.7921L14.4189 25.5955V28.1037ZM14.4189 24.5882L18.1372 25.7848V23.9865L14.4189 22.6107V24.5915V24.5882ZM22.0178 32.6569V41.0366H24.4718V33.4614L22.0178 32.6569ZM21.0544 41.0366V32.7347L19.2493 33.6304V41.0366H21.0544ZM7.87803 32.7448L7.87803 41.04H9.66958V33.6338L7.87803 32.7448ZM6.91465 41.0366L6.91465 32.6502L4.44367 33.4614V41.0366H6.91465ZM1.58057 39.1166V41.0366H3.47691V39.0862L2.38846 38.7752L1.58057 39.1166ZM0.617187 38.4811L2.33437 37.7578L3.47691 38.0856L3.47691 32.7651L7.4555 31.4603L9.66958 32.5589V23.8411L13.8409 21.3634L19.1006 23.3104L19.1006 32.6265L21.46 31.4569L25.4386 32.7617V38.0823L26.5811 37.7544L28.2983 38.4778V42H0.617187L0.617187 38.4778V38.4811ZM27.3349 41.0366V39.1166L26.5271 38.7752L25.4386 39.0862V41.0366H27.3349Z" fill="#6D62DC"/>
</svg>
