<svg width="42" height="42" viewBox="0 0 42 42" fill="none" xmlns="http://www.w3.org/2000/svg">
<path d="M9.06573 2.32319V8.13789C9.06573 8.26581 9.03085 8.39374 8.99598 8.51003C8.93784 8.67284 8.84484 8.82402 8.72857 8.95195C8.68207 8.99847 8.62394 9.01009 8.57743 9.04498C8.50768 9.0915 8.43792 9.14965 8.35654 9.18454C8.21702 9.24268 8.06588 9.27757 7.91474 9.27757H2.33418C1.69474 9.27757 1.17156 8.75425 1.17156 8.11463C1.17156 7.47502 1.69474 6.95169 2.33418 6.95169H5.15934L0.334476 1.96268C-0.107319 1.50914 -0.0956924 0.764856 0.369355 0.322939C0.834402 -0.118978 1.56685 -0.107348 2.00865 0.357827L6.7405 5.26543V2.32319C6.7405 1.68358 7.26368 1.16026 7.90311 1.16026C8.54255 1.16026 9.06573 1.68358 9.06573 2.32319ZM40.8284 8.00997C40.8284 7.37035 40.3053 6.84703 39.6658 6.84703H36.736L41.6423 2.11387C42.1073 1.67195 42.1189 0.927668 41.6771 0.474121C41.2354 0.00894569 40.4913 -0.0026837 40.0379 0.439233L35.027 5.26543V2.43949C35.027 1.79987 34.5038 1.27655 33.8644 1.27655C33.2249 1.27655 32.7017 1.79987 32.7017 2.43949V8.00997C32.7017 8.16115 32.7366 8.31233 32.7948 8.45188C32.8296 8.53329 32.8878 8.60307 32.9343 8.67284C32.9691 8.71936 32.9924 8.77751 33.0273 8.82403C33.1435 8.95195 33.2947 9.03335 33.4691 9.0915C33.5853 9.13802 33.7132 9.16128 33.8411 9.16128H39.6542C40.2936 9.16128 40.8168 8.63795 40.8168 7.99834L40.8284 8.00997ZM1.17156 33.8505C1.17156 34.4901 1.69474 35.0134 2.33418 35.0134H5.26397L0.357728 39.7349C-0.107319 40.1769 -0.118945 40.9212 0.32285 41.3747C0.764645 41.8399 1.50872 41.8515 1.96214 41.4096L6.97302 36.5834V39.4093C6.97302 40.0489 7.4962 40.5723 8.13564 40.5723C8.77508 40.5723 9.29825 40.0489 9.29825 39.4093V33.8388C9.29825 33.6877 9.26338 33.5365 9.20525 33.3969C9.17037 33.3155 9.11224 33.2457 9.06573 33.176C9.03085 33.1295 9.0076 33.0713 8.97272 33.0248C8.85646 32.8969 8.70532 32.8155 8.53093 32.7573C8.41467 32.7108 8.28678 32.6875 8.15889 32.6875H2.33418C1.69474 32.6875 1.17156 33.2109 1.17156 33.8505ZM34.0969 40.8281C34.7363 40.8281 35.2595 40.3048 35.2595 39.6652V36.7346L39.9913 41.6422C40.4331 42.1073 41.1772 42.119 41.6306 41.6771C42.0957 41.2351 42.1073 40.4909 41.6655 40.0373L36.8407 35.025H39.6658C40.3053 35.025 40.8284 34.5017 40.8284 33.8621C40.8284 33.2225 40.3053 32.6992 39.6658 32.6992H34.0969C33.9457 32.6992 33.7946 32.7341 33.6551 32.7922C33.5737 32.8271 33.5039 32.8852 33.4342 32.9318C33.3877 32.9666 33.3296 32.9899 33.2831 33.0248C33.1552 33.1411 33.0738 33.2923 33.0156 33.4667C32.9691 33.583 32.9459 33.7109 32.9459 33.8388V39.6535C32.9459 40.2932 33.4691 40.8165 34.1085 40.8165L34.0969 40.8281ZM39.6658 11.6267H2.46207C1.82263 11.6267 1.29945 12.15 1.29945 12.7896V29.0708C1.29945 29.7104 1.82263 30.2337 2.46207 30.2337H39.6658C40.3053 30.2337 40.8284 29.7104 40.8284 29.0708V12.7896C40.8284 12.15 40.3053 11.6267 39.6658 11.6267ZM38.5032 27.9079H3.62468V14.2433H38.5032V27.9079ZM7.11254 19.8952H35.0154C35.6548 19.8952 36.178 19.3719 36.178 18.7323C36.178 18.0927 35.6548 17.5693 35.0154 17.5693H7.11254C6.4731 17.5693 5.94992 18.0927 5.94992 18.7323C5.94992 19.3719 6.4731 19.8952 7.11254 19.8952Z" fill="#7263E1"/>
</svg>
