<svg width="34" height="42" viewBox="0 0 34 42" fill="none" xmlns="http://www.w3.org/2000/svg">
<path d="M24.3586 0.957665L24.3317 0.833337C24.2813 0.443547 23.9318 0.194887 23.784 0.10752L23.6798 0.043685L23.1925 0L17.1138 2.43954C16.8685 2.52019 16.6669 2.70501 16.5594 2.94022C16.4485 3.1788 16.4418 3.4577 16.5392 3.69964C16.7341 4.18687 17.3054 4.43217 17.7993 4.23728L20.7664 3.05447C18.6192 6.64323 17.5574 10.4235 17.0534 13.73C15.2657 11.1997 12.3255 9.53976 8.9921 9.53976H5.45375L8.70312 6.2904C9.08955 5.90397 9.08955 5.27895 8.70312 4.89589C8.31669 4.50946 7.69168 4.50946 7.30861 4.89589L2.37576 9.82875C1.98933 10.2152 1.98933 10.8402 2.37576 11.2233L7.30861 16.1561C7.69504 16.5425 8.32005 16.5425 8.70312 16.1561C9.08955 15.7697 9.08955 15.1447 8.70312 14.7616L5.45375 11.5122H8.9921C12.7354 11.5122 15.8605 14.1198 16.6736 17.6145C16.556 20.4438 16.7946 22.4835 16.8652 22.9909C16.8685 23.011 16.882 23.0278 16.8853 23.048V23.3538C16.8853 23.8981 17.3255 24.3417 17.8733 24.3417C18.421 24.3417 18.8612 23.9015 18.8612 23.3538V19.4055C18.8612 18.6729 18.7772 17.9639 18.626 17.2751C18.8276 13.4746 19.7416 8.23599 22.7927 3.46442L23.3807 7.32535C23.4177 7.58745 23.5521 7.81596 23.7638 7.97053C23.9755 8.1251 24.2342 8.18558 24.409 8.14862L24.6744 8.13854L24.7517 8.06125C25.118 7.88988 25.3431 7.49672 25.2994 7.06997L24.3653 0.954312L24.3586 0.957665Z" fill="#6D62DC"/>
<path d="M32.8808 26.1194L1.11627 26.1194C0.571913 26.1194 0.125 26.5663 0.125 27.1107L0.125 41.0087C0.125 41.5531 0.571913 42 1.11627 42H32.8808C33.4251 42 33.8721 41.5531 33.8721 41.0087V27.1107C33.8721 26.5663 33.4251 26.1194 32.8808 26.1194ZM31.8895 40.0174H2.10755L2.10755 28.354H31.8895V40.0174Z" fill="#6D62DC"/>
<path d="M5.08502 33.1759H28.9092C29.4536 33.1759 29.9005 32.729 29.9005 32.1846C29.9005 31.6403 29.4536 31.1934 28.9092 31.1934H5.08502C4.54066 31.1934 4.09375 31.6403 4.09375 32.1846C4.09375 32.729 4.54066 33.1759 5.08502 33.1759Z" fill="#6D62DC"/>
</svg>
