<svg width="42" height="42" viewBox="0 0 42 42" fill="none" xmlns="http://www.w3.org/2000/svg">
<mask id="mask0_2725_8148" style="mask-type:luminance" maskUnits="userSpaceOnUse" x="0" y="0" width="42" height="42">
<path d="M42 0L0 0L0 42H42V0Z" fill="white"/>
</mask>
<g mask="url(#mask0_2725_8148)">
<path d="M26.6616 16.0775H16.2019L16.081 16.1985L15.6811 16.5983L14.7302 17.5492L14.5118 17.7777L13.0234 19.2662L21.4536 28.6876L22.8346 27.1487L23.3856 26.5271L23.9467 25.8955L24.3365 25.4553L24.8573 24.874L25.116 24.5851L25.9459 23.6543L26.1643 23.4057L29.8738 19.2662L26.675 16.0775H26.665H26.6616ZM28.1198 18.8294H25.1597L26.5003 17.2199L28.1098 18.8294H28.1198ZM25.4923 16.9881L24.1517 18.5975L22.5422 16.9881H25.5024H25.4923ZM23.0698 18.8294H19.7803L21.4301 17.1796L23.0798 18.8294H23.0698ZM20.3213 16.9881L18.7118 18.5975L17.3712 16.9881H20.3314H20.3213ZM15.8122 17.7575L16.3128 17.2569L16.3531 17.2166L16.6824 17.6063L16.8538 17.8247L17.6938 18.826H14.7336L15.8021 17.7575H15.8122ZM14.6597 19.75H18.3389L20.3482 26.1105L14.6597 19.75ZM19.2998 19.75H23.5603L21.4301 26.4801L19.2998 19.75ZM22.5019 26.1071L24.5112 19.7467H28.1904L22.5019 26.1071ZM5.50032 25.9996C2.4696 25.9996 0 23.53 0 20.4993C0 17.4686 2.4696 14.999 5.50032 14.999C8.53104 14.999 11.0006 17.4686 11.0006 20.4993C11.0006 23.53 8.53104 25.9996 5.50032 25.9996ZM5.50032 16.9982C3.57168 16.9982 1.9992 18.5673 1.9992 20.4993C1.9992 22.4313 3.56832 24.0004 5.50032 24.0004C7.43232 24.0004 9.00144 22.4313 9.00144 20.4993C9.00144 18.5673 7.43232 16.9982 5.50032 16.9982ZM21.4301 10.9972C18.3994 10.9972 15.9298 8.52762 15.9298 5.4969C15.9298 2.46618 18.3994 -0.00341797 21.4301 -0.00341797C24.4608 -0.00341797 26.9304 2.46618 26.9304 5.4969C26.9304 8.52762 24.4608 10.9972 21.4301 10.9972ZM21.4301 1.99914C19.5014 1.99914 17.929 3.56826 17.929 5.50026C17.929 7.43226 19.4981 9.00138 21.4301 9.00138C23.3621 9.00138 24.9312 7.43226 24.9312 5.50026C24.9312 3.56826 23.3621 1.99914 21.4301 1.99914ZM21.4301 41.9999C18.3994 41.9999 15.9298 39.5303 15.9298 36.4996C15.9298 33.4689 18.3994 30.9993 21.4301 30.9993C24.4608 30.9993 26.9304 33.4689 26.9304 36.4996C26.9304 39.5303 24.4608 41.9999 21.4301 41.9999ZM21.4301 32.9985C19.5014 32.9985 17.929 34.5676 17.929 36.4996C17.929 38.4316 19.4981 40.0007 21.4301 40.0007C23.3621 40.0007 24.9312 38.4316 24.9312 36.4996C24.9312 34.5676 23.3621 32.9985 21.4301 32.9985ZM36.4997 25.9996C33.469 25.9996 30.9994 23.53 30.9994 20.4993C30.9994 17.4686 33.469 14.999 36.4997 14.999C39.5304 14.999 42 17.4686 42 20.4993C42 23.53 39.5304 25.9996 36.4997 25.9996ZM36.4997 16.9982C34.571 16.9982 32.9986 18.5673 32.9986 20.4993C32.9986 22.4313 34.5677 24.0004 36.4997 24.0004C38.4317 24.0004 40.0008 22.4313 40.0008 20.4993C40.0008 18.5673 38.4317 16.9982 36.4997 16.9982ZM37.2322 31.7687C37.3632 32.3097 37.0406 32.8473 36.503 32.9783C36.4224 32.9985 36.3418 33.0086 36.2645 33.0086C35.8142 33.0086 35.4043 32.7095 35.2934 32.2492C35.1926 31.8595 35.1221 31.51 35.075 31.1707C34.645 31.6612 34.2048 32.1316 33.7243 32.5718C32.4442 33.7411 31.0027 34.702 29.4336 35.4211C29.2925 35.4815 29.1547 35.5118 29.0136 35.5118C28.6339 35.5118 28.2744 35.3035 28.103 34.9305C27.8746 34.4299 28.093 33.8318 28.5936 33.5999C29.9746 32.9582 31.2547 32.1115 32.3837 31.0799C32.7734 30.7204 33.143 30.3307 33.4925 29.9409C33.1229 29.9812 32.723 30.0014 32.2728 30.0014C31.7218 30.0014 31.2715 29.5511 31.2715 29.0001C31.2715 28.4491 31.7218 27.9988 32.2728 27.9988C34.0234 27.9988 36.3619 26.7691 36.7819 27.0177C37.1314 27.226 36.7819 29.9577 37.2422 31.7587L37.2322 31.7687ZM33.2506 4.76778C33.7915 4.63674 34.3291 4.9593 34.4602 5.4969C34.4803 5.57754 34.4904 5.65818 34.4904 5.73546C34.4904 6.1857 34.1914 6.59562 33.731 6.7065C33.3413 6.8073 32.9918 6.87786 32.6525 6.92826C33.143 7.35834 33.6134 7.7985 34.0536 8.27898C35.2229 9.55914 36.1838 10.9972 36.9029 12.5697C36.9634 12.7108 36.9936 12.8486 36.9936 12.9897C36.9936 13.3694 36.7853 13.7289 36.4123 13.9003C35.9117 14.1287 35.3136 13.9103 35.0818 13.4097C34.4434 12.0287 33.5933 10.7486 32.5618 9.61962C32.2022 9.22986 31.8125 8.86026 31.4227 8.51082C31.463 8.88042 31.4832 9.28026 31.4832 9.7305C31.4832 10.2815 31.033 10.7318 30.4819 10.7318C29.9309 10.7318 29.4806 10.2815 29.4806 9.7305C29.4806 7.97994 28.2509 5.64138 28.4995 5.22138C28.7078 4.87194 31.4395 5.22138 33.2405 4.76106L33.2506 4.77114V4.76778ZM4.7712 8.96778C4.64016 8.42682 4.96272 7.88922 5.50032 7.75818C5.58096 7.73802 5.66161 7.72795 5.73889 7.72795C6.18913 7.72795 6.59904 8.02698 6.70992 8.4873C6.81072 8.87706 6.88128 9.2265 6.92832 9.56586C7.3584 9.0753 7.79856 8.6049 8.27905 8.16474C9.55921 6.99546 11.0006 6.0345 12.5698 5.31546C12.7109 5.25498 12.8486 5.22474 12.9898 5.22474C13.3694 5.22474 13.729 5.43306 13.9003 5.80603C14.1288 6.30666 13.9104 6.90474 13.4098 7.13658C12.0288 7.77834 10.7486 8.62506 9.61968 9.65658C9.22992 10.0161 8.86033 10.4059 8.51089 10.7956C8.88049 10.7553 9.28032 10.7351 9.73056 10.7351C10.2816 10.7351 10.7318 11.1854 10.7318 11.7364C10.7318 12.2875 10.2816 12.7377 9.73056 12.7377C7.98 12.7377 5.64144 13.9675 5.22144 13.7188C4.872 13.5105 5.22144 10.7788 4.76112 8.97786L4.7712 8.96778ZM8.95105 37.1582C8.42017 37.3094 7.87248 36.9868 7.72128 36.4593C7.70112 36.3787 7.69105 36.298 7.68097 36.2207C7.67089 35.7705 7.95984 35.3606 8.41008 35.2295C8.78976 35.1187 9.14928 35.038 9.48864 34.9809C8.988 34.571 8.50752 34.1308 8.05728 33.6604C6.85776 32.4105 5.86656 30.9892 5.09712 29.4403C5.02656 29.3092 4.99632 29.1614 4.99632 29.0203C4.99632 28.6406 5.19792 28.2811 5.55744 28.0996C6.05808 27.8611 6.64608 28.0593 6.89808 28.5499C7.56672 29.9207 8.44705 31.1707 9.50881 32.2795C9.87841 32.6692 10.2682 33.0187 10.6781 33.3681C10.6378 32.9985 10.5974 32.5987 10.5874 32.1484C10.5773 31.5974 11.0074 31.1371 11.5685 31.127C12.1296 31.1169 12.5798 31.547 12.5899 32.1081C12.6302 33.8587 13.9205 36.167 13.6786 36.5971C13.477 36.9566 10.7386 36.6777 8.94768 37.1683V37.1582H8.95105Z" fill="#7263E1"/>
</g>
</svg>
