<svg width="52" height="42" viewBox="0 0 52 42" fill="none" xmlns="http://www.w3.org/2000/svg">
<path d="M46.0357 8.98958H44.0706C43.8586 8.1727 43.5427 7.39435 43.1188 6.67765L44.5098 5.28279C44.61 5.17105 44.6717 5.03233 44.6717 4.88205C44.6717 4.73178 44.61 4.59306 44.5098 4.48132L42.1324 2.09618C42.0206 1.99599 41.8819 1.93435 41.7317 1.93435C41.5814 1.93435 41.4427 1.99599 41.3309 2.09618L39.9399 3.49104C39.2117 3.06333 38.4487 2.73967 37.6357 2.53545V0.562608C37.6357 0.250498 37.3852 -0.0038147 37.0731 -0.0038147L33.717 -0.0038147C33.4049 -0.0038147 33.1544 0.246644 33.1544 0.562608V2.53545C31.9907 2.836 31.4898 3.07489 30.8386 3.49104L29.4592 2.09618C29.3474 1.99599 29.2087 1.93435 29.0584 1.93435C28.9082 1.93435 28.7695 1.99599 28.6577 2.09618L26.4267 4.33105H28.0181L29.0584 3.29068L30.3608 4.60848C30.5496 4.79729 30.8502 4.8204 31.0737 4.68554C31.9021 4.13453 32.2373 3.90719 33.8403 3.52957C34.0907 3.46792 34.2795 3.24059 34.2795 2.97857V1.13288L36.5067 1.13288V2.97857C36.5067 3.256 36.6955 3.47948 36.9575 3.52957C37.9478 3.72994 38.8726 4.11911 39.7126 4.68554C39.9361 4.82425 40.2366 4.79729 40.4254 4.60848L41.7278 3.29068L43.3192 4.88591L42.0052 6.19214C41.8164 6.38095 41.7933 6.68151 41.932 6.90885C42.4946 7.74885 42.8838 8.68132 43.0841 9.67159C43.1342 9.93361 43.3577 10.1109 43.6351 10.1109H45.477V12.3688H43.6351C43.3577 12.3688 43.1342 12.5461 43.0841 12.8081C42.8838 13.7984 42.4946 14.727 41.932 15.5709C41.7933 15.7982 41.8203 16.0988 42.0052 16.2876L43.3192 17.5938L41.7278 19.189L40.4254 17.8712C40.2366 17.6824 39.9361 17.6593 39.7126 17.7942C38.8726 18.3606 37.9478 18.7498 36.9575 18.9501C36.6955 19.0002 36.5067 19.2276 36.5067 19.5011V21.3468H34.2795V19.5011C34.2795 19.2237 34.0907 19.0002 33.8287 18.9501C32.8384 18.7498 31.9137 18.3606 31.0737 17.7942C30.8502 17.6555 30.5496 17.6824 30.3608 17.8712L29.0584 19.189L27.7946 17.9213H26.2302C26.2302 17.9213 26.2572 17.9714 26.2803 17.9984L28.6577 20.3835C28.7695 20.4837 28.9082 20.5454 29.0584 20.5454C29.2087 20.5454 29.3474 20.4837 29.4592 20.3835L30.8502 18.9887C31.5784 19.4164 32.3414 19.7439 33.1544 19.9443V21.9171C33.1544 22.2331 33.4049 22.4835 33.717 22.4835H37.0731C37.3852 22.4835 37.6357 22.2331 37.6357 21.9171V19.9443C38.4487 19.7439 39.2117 19.4164 39.9399 18.9887L41.3309 20.3835C41.4427 20.4837 41.5814 20.5454 41.7317 20.5454C41.8819 20.5454 42.0206 20.4837 42.1324 20.3835L44.5098 17.9984C44.61 17.8866 44.6717 17.7479 44.6717 17.5977C44.6717 17.4474 44.61 17.3087 44.5098 17.1969L43.1188 15.8021C43.5427 15.0854 43.8586 14.307 44.0706 13.4901H46.0357C46.3478 13.4901 46.5983 13.2397 46.5983 12.9237V9.55985C46.5983 9.24388 46.3478 8.99342 46.0357 8.99342V8.98958ZM35.3893 6.74315C32.9232 6.74315 30.9041 8.76609 30.9041 11.2399C30.9041 13.7136 32.9194 15.7365 35.3893 15.7365C37.8592 15.7365 39.8744 13.7136 39.8744 11.2399C39.8744 8.76609 37.8592 6.74315 35.3893 6.74315ZM35.3893 14.5999C33.5359 14.5999 32.0331 13.0932 32.0331 11.236C32.0331 9.37875 33.5359 7.87215 35.3893 7.87215C37.2427 7.87215 38.7454 9.37875 38.7454 11.236C38.7454 13.0932 37.2427 14.5999 35.3893 14.5999ZM17.8841 33.1723C17.2599 33.3342 16.6203 32.945 16.4546 32.3169C16.4276 32.2167 16.4161 32.1281 16.4161 32.0279C16.4161 31.5 16.7667 31.0222 17.3062 30.8835C17.757 30.7718 18.1808 30.6832 18.57 30.6215C17.9959 30.1206 17.4449 29.5927 16.917 29.0263C15.5529 27.5197 14.424 25.8127 13.5608 23.967C13.4838 23.8052 13.4491 23.6395 13.4491 23.4777C13.4491 23.0384 13.6995 22.6107 14.1273 22.4103C14.7168 22.1329 15.4181 22.3987 15.6917 22.9883C16.443 24.6221 17.4449 26.1132 18.6471 27.4465C19.0748 27.9127 19.5218 28.3365 19.988 28.7527C19.9495 28.3134 19.9109 27.8356 19.9109 27.3232C19.9109 26.672 20.435 26.1441 21.0862 26.1441C21.7373 26.1441 22.2614 26.672 22.2614 27.3232C22.2614 29.3808 23.714 32.1435 23.4135 32.6483C23.163 33.0644 19.9572 32.6483 17.8417 33.1877L17.8803 33.1762L17.8841 33.1723ZM28.9043 4.33105L1.79313 4.33105C1.33074 4.33105 0.953125 4.70866 0.953125 5.18646L0.953125 17.0775C0.953125 17.5437 1.33074 17.9175 1.79313 17.9175H28.9043C29.3821 17.9175 29.7559 17.5399 29.7559 17.0775V5.18646C29.7559 4.70866 29.3821 4.33105 28.9043 4.33105ZM28.0643 16.2221H2.64468L2.64468 6.23838L28.0643 6.23838V16.2221ZM26.3612 9.51747C26.3612 9.75637 26.2726 9.95673 26.1223 10.107C25.972 10.2688 25.7601 10.369 25.5212 10.369L5.18395 10.369C4.72157 10.369 4.33239 9.99141 4.33239 9.51361C4.33239 9.03581 4.72157 8.67361 5.18395 8.67361L25.5212 8.67361C25.7832 8.67361 26.0221 8.80077 26.1724 8.98958C26.2841 9.12829 26.3612 9.3171 26.3612 9.51747ZM50.3783 31.3652L29.1663 31.3652C28.8041 31.3652 28.5036 31.6657 28.5036 32.0318V41.3373C28.5036 41.6995 28.8041 42.0039 29.1663 42.0039H50.3783C50.7405 42.0039 51.041 41.7033 51.041 41.3373V32.0318C51.041 31.6657 50.7405 31.3652 50.3783 31.3652ZM49.7155 40.6668H29.8291V32.8564H49.7155V40.6668ZM31.1584 35.4188C31.1584 35.0565 31.459 34.7521 31.8212 34.7521H47.7388C48.101 34.7521 48.4016 35.0527 48.4016 35.4188C48.4016 35.7848 48.101 36.0854 47.7388 36.0854H31.8212C31.459 36.0854 31.1584 35.7848 31.1584 35.4188Z" fill="#6D62DC"/>
</svg>
