<svg width="42" height="42" viewBox="0 0 42 42" fill="none" xmlns="http://www.w3.org/2000/svg">
<path d="M41.2115 31.2883H39.676C39.5114 30.6365 39.2493 30.0283 38.92 29.4504L40.0086 28.3382C40.0926 28.2542 40.143 28.1501 40.143 28.0224C40.143 27.9082 40.0926 27.7906 40.0086 27.7066L38.1405 25.8182C38.0565 25.7342 37.9422 25.6805 37.828 25.6805C37.7037 25.6805 37.5995 25.7342 37.5155 25.8182L36.4168 26.9203C35.8456 26.5843 35.2442 26.3222 34.6024 26.1542V24.5885C34.6024 24.3466 34.4042 24.1483 34.1656 24.1483L31.5818 24.1483L31.0744 24.7262V26.1643C30.1605 26.3962 29.7573 26.5944 29.2499 26.9203L29.1861 26.8565L28.5947 27.5184L28.8736 27.8006C29.0282 27.9586 29.2566 27.9787 29.4347 27.8645C30.0865 27.4243 30.3587 27.2462 31.612 26.9506C31.8102 26.8968 31.9547 26.7187 31.9547 26.5104V25.0387L33.7187 25.0387V26.5104C33.7187 26.7187 33.8632 26.9102 34.0715 26.9506C34.851 27.1085 35.5768 27.4142 36.2387 27.8645C36.4134 27.9787 36.6419 27.9586 36.7998 27.8006L37.828 26.7624L39.0712 28.0224L38.0464 29.0606C37.8918 29.2186 37.8717 29.4504 37.9859 29.6285C38.4328 30.3005 38.7318 31.0363 38.8864 31.8226C38.9267 32.0309 39.1149 32.1787 39.3232 32.1787H40.7747V33.9629H39.3232C39.1149 33.9629 38.9301 34.1107 38.8864 34.319C38.7318 35.1053 38.4294 35.8411 37.9859 36.5131C37.8717 36.6912 37.8918 36.923 38.0464 37.081L39.0712 38.1192L37.828 39.3792L36.7998 38.341C36.6453 38.183 36.4168 38.1629 36.2387 38.2771C35.5734 38.7274 34.8477 39.0331 34.0715 39.191C33.8632 39.2314 33.7187 39.4229 33.7187 39.6312V41.1029H31.9547V39.6312C31.9547 39.4229 31.8102 39.2314 31.6019 39.191C30.8224 39.0331 30.0966 38.7274 29.4347 38.2771C29.2566 38.1629 29.0315 38.183 28.8736 38.341L27.8488 39.3792L26.6056 38.1192L27.6338 37.081C27.7883 36.923 27.8085 36.6912 27.6942 36.5131C27.2474 35.8411 26.9483 35.1053 26.7904 34.319C26.7501 34.1107 26.5619 33.9629 26.3536 33.9629H24.9021V32.1787H26.3536C26.5619 32.1787 26.7467 32.0309 26.7904 31.8226C26.945 31.0363 27.2474 30.3005 27.6942 29.6285C27.8085 29.4504 27.7883 29.2186 27.6338 29.0606L27.4254 28.8523L26.5451 29.8502C26.3166 30.3005 26.1318 30.7843 26.0075 31.2883H25.2818L24.0285 32.7062V34.4165C24.0285 34.6584 24.2267 34.8566 24.4754 34.8566H26.0109C26.1755 35.5085 26.4342 36.1166 26.7669 36.6946L25.6782 37.8067C25.5942 37.8907 25.5438 37.9949 25.5438 38.1226C25.5438 38.2368 25.5942 38.3544 25.6782 38.4384L27.5464 40.3267C27.6304 40.4107 27.7446 40.4645 27.8589 40.4645C27.9832 40.4645 28.0874 40.4107 28.1714 40.3267L29.2701 39.2246C29.8413 39.5606 30.4427 39.8227 31.0845 39.9907V41.5565C31.0845 41.7984 31.2827 41.9966 31.5213 41.9966H34.1757C34.4142 41.9966 34.6125 41.7984 34.6125 41.5565V39.9907C35.2542 39.8227 35.8557 39.5606 36.4269 39.2246L37.5256 40.3267C37.6096 40.4107 37.7104 40.4645 37.8381 40.4645C37.9523 40.4645 38.0666 40.4107 38.1506 40.3267L40.0187 38.4384C40.1027 38.3544 40.1531 38.2402 40.1531 38.1226C40.1531 37.9949 40.1027 37.8907 40.0187 37.8067L38.9301 36.6946C39.2627 36.1166 39.5214 35.5085 39.6861 34.8566H41.2216C41.4702 34.8566 41.6685 34.6584 41.6685 34.4165V31.7285C41.6685 31.4866 41.4702 31.2883 41.2216 31.2883H41.2115ZM32.8418 36.6442C30.903 36.6442 29.3171 35.0381 29.3171 33.0758C29.3171 31.1136 30.903 29.5075 32.8418 29.5075C34.7805 29.5075 36.3664 31.1136 36.3664 33.0758C36.3664 35.0381 34.7805 36.6442 32.8418 36.6442ZM32.8418 30.3979C31.3802 30.3979 30.1974 31.5941 30.1974 33.0758C30.1974 34.5576 31.3802 35.7538 32.8418 35.7538C34.3034 35.7538 35.4861 34.5576 35.4861 33.0758C35.4861 31.5941 34.3034 30.3979 32.8418 30.3979ZM12.5877 5.09376H11.4889C11.3646 4.63008 11.1866 4.18992 10.948 3.78L11.7242 2.99376C11.788 2.92992 11.8182 2.84592 11.8182 2.76192C11.8182 2.67792 11.788 2.604 11.7242 2.54016L10.3869 1.18608C10.3365 1.12224 10.2525 1.092 10.1685 1.092C10.0845 1.092 10.0038 1.12224 9.93999 1.18608L9.16047 1.97232C8.75727 1.7304 8.32048 1.55232 7.86352 1.43808V0.315841C7.86352 0.147841 7.72911 0 7.55103 0L5.66271 0C5.49807 0 5.35023 0.147841 5.35023 0.315841V1.43808C4.69503 1.60608 4.41616 1.74384 4.05328 1.97232L3.27376 1.18608C3.21328 1.12224 3.13936 1.092 3.05536 1.092C2.96128 1.092 2.89071 1.12224 2.82687 1.18608L1.4896 2.54016C1.4392 2.604 1.39552 2.67792 1.39552 2.76192C1.39552 2.84592 1.43584 2.92992 1.4896 2.99376L2.2792 3.78C2.03056 4.18992 1.85248 4.63008 1.7416 5.09376H0.63279C0.46815 5.09376 0.320312 5.23152 0.320312 5.4096L0.320312 7.32144C0.320312 7.49952 0.46479 7.63728 0.63279 7.63728H1.7416C1.85584 8.10096 2.03056 8.54112 2.2792 8.95104L1.4896 9.73728C1.4392 9.80112 1.39552 9.88512 1.39552 9.96912C1.39552 10.0531 1.43584 10.127 1.4896 10.1909L2.82687 11.545C2.88735 11.6088 2.96128 11.639 3.05536 11.639C3.13936 11.639 3.20992 11.6088 3.27376 11.545L4.05328 10.7587C4.41616 10.9805 4.80927 11.1485 5.21584 11.2627L5.7232 10.7386C5.17216 10.6243 4.65472 10.4026 4.1776 10.0867C4.05328 10.0027 3.88863 10.0128 3.78447 10.127L3.04863 10.873L2.16831 9.96912L2.90415 9.2232C3.00831 9.11904 3.01839 8.95104 2.93439 8.82336C2.62191 8.33952 2.40687 7.81536 2.29263 7.2576C2.27247 7.10976 2.13807 7.0056 1.99023 7.0056H0.951994L0.951994 5.72544H1.99023C2.13471 5.72544 2.26911 5.62128 2.29263 5.47344C2.40687 4.91568 2.62527 4.39152 2.93439 3.90768C3.01839 3.78 3.00831 3.612 2.90415 3.50784L2.16831 2.76192L3.04863 1.85808L3.78447 2.604C3.88863 2.71824 4.05328 2.73168 4.1776 2.64432C4.64464 2.33856 4.84288 2.20416 5.73328 1.99248C5.87776 1.96224 5.98191 1.83456 5.98191 1.68672V0.638398H7.2352V1.68672C7.2352 1.83456 7.33935 1.95888 7.48383 1.99248C8.03487 2.10672 8.55232 2.32848 9.02944 2.64432C9.15376 2.72832 9.31839 2.71824 9.42255 2.604L10.1584 1.85808L11.0488 2.76192L10.3129 3.50784C10.2088 3.612 10.1886 3.78 10.2726 3.90768C10.5851 4.39152 10.8002 4.91568 10.9144 5.47344C10.9446 5.62128 11.0689 5.72544 11.2269 5.72544H12.2651V7.0056H11.2269C11.0723 7.0056 10.948 7.10976 10.9144 7.2576C10.9043 7.28784 10.9043 7.32144 10.8942 7.35168H12.8867V5.4096C12.8867 5.23152 12.7523 5.09376 12.5742 5.09376H12.5877ZM6.6136 3.82032C5.23264 3.82032 4.10368 4.956 4.10368 6.36048C4.10368 7.76496 5.23264 8.90064 6.6136 8.90064C7.08064 8.90064 7.51743 8.77296 7.89039 8.55456C8.26335 8.3328 8.58591 8.01024 8.80431 7.63056C9.01263 7.25424 9.13695 6.8208 9.13695 6.36048C9.13695 4.95264 8.00799 3.82032 6.61695 3.82032H6.6136ZM6.6136 8.27232C5.57536 8.27232 4.72528 7.41216 4.72528 6.36048C4.72528 5.3088 5.57536 4.44864 6.6136 4.44864C7.65184 4.44864 8.50191 5.3088 8.50191 6.36048C8.50191 7.41216 7.65184 8.27232 6.6136 8.27232ZM32.7477 7.34832L9.0832 7.34832L8.80431 7.63056L7.89039 8.55456L5.73328 10.7285L5.22591 11.2526L1.85583 14.653L20.9171 36.2208L24.0285 32.7029L25.2818 31.285L26.5485 29.8469L27.4288 28.849L28.6014 27.515L29.1928 26.8531L31.0811 24.7229L31.5885 24.145L39.9784 14.653L32.751 7.34496L32.7477 7.34832ZM36.0472 13.6483H29.3574L32.3949 9.95232L36.0438 13.6483H36.0472ZM30.1034 9.44832L27.0659 13.1443L23.4169 9.44832H30.1067H30.1034ZM24.64 13.6483H17.1942L20.9171 9.8784L24.64 13.6483ZM18.4173 9.44832L14.7683 13.1443L11.7309 9.44832L18.4206 9.44832H18.4173ZM8.21295 11.1922L9.34191 10.0464L9.43599 9.95232L10.1819 10.8562L10.575 11.3501L12.4734 13.6483H5.78368L8.2096 11.1922H8.21295ZM5.60895 15.7483H13.9384L18.4811 30.3106L5.61231 15.7483H5.60895ZM16.1056 15.7483L25.7286 15.7483L20.9171 31.164L16.1056 15.7483ZM23.3531 30.3139L27.8958 15.7517H36.2253L23.3565 30.3139H23.3531Z" fill="#7263E1"/>
</svg>
