<svg width="36" height="42" viewBox="0 0 36 42" fill="none" xmlns="http://www.w3.org/2000/svg">
<path d="M17.5312 10.7188L17.7107 10.8982H17.9508" stroke="#6D62DC" stroke-width="0.32" stroke-linecap="round" stroke-linejoin="round"/>
<path d="M17.7107 10.3107L17.5312 10.4756V10.7187" stroke="#6D62DC" stroke-width="0.32" stroke-linecap="round" stroke-linejoin="round"/>
<path d="M17.7109 10.3107H17.9511" stroke="#6D62DC" stroke-width="0.32" stroke-linecap="round" stroke-linejoin="round"/>
<path d="M18.121 10.7187V10.4756L17.9531 10.3107" stroke="#6D62DC" stroke-width="0.32" stroke-linecap="round" stroke-linejoin="round"/>
<path d="M17.5395 10.7188L15.6094 11.5232M18.1269 10.7188L17.962 10.8982" stroke="#6D62DC" stroke-width="0.32" stroke-linecap="round" stroke-linejoin="round"/>
<path d="M17.7084 10.8982L16.901 12.8283L14.0391 14.3881L15.5988 11.5232" stroke="#6D62DC" stroke-width="0.32" stroke-linecap="round" stroke-linejoin="round"/>
<path d="M17.5328 10.4758L15.6027 9.68286L12.4688 10.6031L15.6027 11.5233" stroke="#6D62DC" stroke-width="0.32" stroke-linecap="round" stroke-linejoin="round"/>
<path d="M16.9062 8.38062L17.7136 10.3108" stroke="#6D62DC" stroke-width="0.32" stroke-linecap="round" stroke-linejoin="round"/>
<path d="M15.5988 9.68267L14.0391 6.80627L16.901 8.38048" stroke="#6D62DC" stroke-width="0.32" stroke-linecap="round" stroke-linejoin="round"/>
<path d="M18.746 8.38062L17.9531 10.3108" stroke="#6D62DC" stroke-width="0.32" stroke-linecap="round" stroke-linejoin="round"/>
<path d="M16.9062 8.38065L17.8265 5.2467L18.7467 8.38065" stroke="#6D62DC" stroke-width="0.32" stroke-linecap="round" stroke-linejoin="round"/>
<path d="M18.1172 10.4756L20.0473 9.68267L21.6071 6.80627L18.7422 8.38048" stroke="#6D62DC" stroke-width="0.32" stroke-linecap="round" stroke-linejoin="round"/>
<path d="M18.1172 10.7188L20.0473 11.5233L23.1784 10.6031L20.0473 9.68286" stroke="#6D62DC" stroke-width="0.32" stroke-linecap="round" stroke-linejoin="round"/>
<path d="M17.9531 10.8982L18.746 12.8283" stroke="#6D62DC" stroke-width="0.32" stroke-linecap="round" stroke-linejoin="round"/>
<path d="M20.0473 11.5234L21.607 14.3883L18.7422 12.8285" stroke="#6D62DC" stroke-width="0.32" stroke-linecap="round" stroke-linejoin="round"/>
<path d="M16.9062 12.8284L17.8265 15.9594L18.7467 12.8284" stroke="#6D62DC" stroke-width="0.32" stroke-linecap="round" stroke-linejoin="round"/>
<path d="M17.8271 15.9594L17.3034 15.9218L16.7912 15.8466L16.2819 15.7163L15.7812 15.5514L16.9069 12.8284" stroke="#6D62DC" stroke-width="0.32" stroke-linecap="round" stroke-linejoin="round"/>
<path d="M14.0391 14.3881L14.4355 14.7324" stroke="#6D62DC" stroke-width="0.32" stroke-linecap="round" stroke-linejoin="round"/>
<path d="M15.7773 15.5515L15.3056 15.32L14.8571 15.0393L14.4375 14.7325" stroke="#6D62DC" stroke-width="0.32" stroke-linecap="round" stroke-linejoin="round"/>
<path d="M15.598 11.5234L12.875 12.6491L13.1036 13.1237" stroke="#6D62DC" stroke-width="0.32" stroke-linecap="round" stroke-linejoin="round"/>
<path d="M14.0519 14.388L13.7046 13.9915L13.3979 13.5691L13.1172 13.1234" stroke="#6D62DC" stroke-width="0.32" stroke-linecap="round" stroke-linejoin="round"/>
<path d="M12.8797 12.6489L12.7118 12.1512L12.5845 11.639L12.5093 11.1268L12.4688 10.603" stroke="#6D62DC" stroke-width="0.32" stroke-linecap="round" stroke-linejoin="round"/>
<path d="M15.6096 9.68302L12.8866 8.54578L12.7188 9.0435" stroke="#6D62DC" stroke-width="0.32" stroke-linecap="round" stroke-linejoin="round"/>
<path d="M12.4688 10.6031L12.5093 10.0793L12.5845 9.55553L12.7118 9.04333" stroke="#6D62DC" stroke-width="0.32" stroke-linecap="round" stroke-linejoin="round"/>
<path d="M12.875 8.54542L13.1036 8.07374L13.3843 7.62521L13.691 7.20272L14.0383 6.80627" stroke="#6D62DC" stroke-width="0.32" stroke-linecap="round" stroke-linejoin="round"/>
<path d="M16.9099 8.38074L15.7842 5.65771L15.3125 5.88632" stroke="#6D62DC" stroke-width="0.32" stroke-linecap="round" stroke-linejoin="round"/>
<path d="M14.0391 6.80632L14.4355 6.46197L14.8551 6.15523L15.3036 5.88611" stroke="#6D62DC" stroke-width="0.32" stroke-linecap="round" stroke-linejoin="round"/>
<path d="M15.7812 5.65762L16.2819 5.47821L16.7912 5.36245L17.3034 5.27275L17.8271 5.2467" stroke="#6D62DC" stroke-width="0.32" stroke-linecap="round" stroke-linejoin="round"/>
<path d="M18.7422 8.38071L19.8679 5.65768L19.3817 5.47827" stroke="#6D62DC" stroke-width="0.32" stroke-linecap="round" stroke-linejoin="round"/>
<path d="M17.8281 5.2467L18.3519 5.27275L18.8786 5.36245L19.3879 5.47821" stroke="#6D62DC" stroke-width="0.32" stroke-linecap="round" stroke-linejoin="round"/>
<path d="M19.875 5.65771L20.3496 5.88632L20.7952 6.15544L21.2293 6.46218L21.6141 6.80654" stroke="#6D62DC" stroke-width="0.32" stroke-linecap="round" stroke-linejoin="round"/>
<path d="M20.0469 9.68266L22.7699 8.54541L22.5384 8.07373" stroke="#6D62DC" stroke-width="0.32" stroke-linecap="round" stroke-linejoin="round"/>
<path d="M21.6016 6.80627L21.9604 7.20272L22.2671 7.62521L22.5334 8.07374" stroke="#6D62DC" stroke-width="0.32" stroke-linecap="round" stroke-linejoin="round"/>
<path d="M22.7699 8.54578L22.9348 9.0435L23.0651 9.5557L23.1519 10.0795L23.1779 10.6032L23.1519 11.127L23.0651 11.6392L22.9348 12.1514L22.7699 12.6491L20.0469 11.5235" stroke="#6D62DC" stroke-width="0.32" stroke-linecap="round" stroke-linejoin="round"/>
<path d="M21.6016 14.388L21.9604 13.9916" stroke="#6D62DC" stroke-width="0.32" stroke-linecap="round" stroke-linejoin="round"/>
<path d="M22.781 12.6489L22.5495 13.1235L22.2833 13.5691L21.9766 13.9916" stroke="#6D62DC" stroke-width="0.32" stroke-linecap="round" stroke-linejoin="round"/>
<path d="M21.607 14.3881L21.2221 14.7325L20.7881 15.0392L20.3424 15.3199L19.8679 15.5514L18.7422 12.8284" stroke="#6D62DC" stroke-width="0.32" stroke-linecap="round" stroke-linejoin="round"/>
<path d="M19.874 15.5514L19.3879 15.7163L18.8786 15.8466L18.3519 15.9218L17.8281 15.9594" stroke="#6D62DC" stroke-width="0.32" stroke-linecap="round" stroke-linejoin="round"/>
<path d="M17.2969 15.9216L17.8206 15.9592" stroke="#6D62DC" stroke-width="0.32" stroke-linecap="round" stroke-linejoin="round"/>
<path d="M17.2931 15.9217L16.7809 15.8465L16.2716 15.7163L15.771 15.5513L15.2993 15.3198L14.8508 15.0391L14.4312 14.7324L14.0348 14.388L13.6875 13.9916" stroke="#6D62DC" stroke-width="0.32" stroke-linecap="round" stroke-linejoin="round"/>
<path d="M14.0391 14.3881H14.0506" stroke="#6D62DC" stroke-width="0.32" stroke-linecap="round" stroke-linejoin="round"/>
<path d="M13.6943 13.9917L13.3875 13.5692L13.1068 13.1235L12.8782 12.6489L12.7104 12.1512L12.583 11.639L12.5078 11.1268" stroke="#6D62DC" stroke-width="0.32" stroke-linecap="round" stroke-linejoin="round"/>
<path d="M12.4688 10.603L12.5093 11.1268" stroke="#6D62DC" stroke-width="0.32" stroke-linecap="round" stroke-linejoin="round"/>
<path d="M12.5093 10.0792L12.4688 10.603" stroke="#6D62DC" stroke-width="0.32" stroke-linecap="round" stroke-linejoin="round"/>
<path d="M12.5078 10.0794L12.583 9.55559L12.7104 9.04339L12.8782 8.54567L13.1068 8.08556L13.3875 7.62545L13.6943 7.20296L14.0415 6.82098L14.438 6.46216" stroke="#6D62DC" stroke-width="0.32" stroke-linecap="round" stroke-linejoin="round"/>
<path d="M14.0391 6.82104H14.0506" stroke="#6D62DC" stroke-width="0.32" stroke-linecap="round" stroke-linejoin="round"/>
<path d="M14.4375 6.46216L14.8571 6.15542L15.3056 5.8863L15.7773 5.6577L16.2779 5.47828L16.7872 5.36253L17.2994 5.27283" stroke="#6D62DC" stroke-width="0.32" stroke-linecap="round" stroke-linejoin="round"/>
<path d="M17.8206 5.2467L17.2969 5.27275" stroke="#6D62DC" stroke-width="0.32" stroke-linecap="round" stroke-linejoin="round"/>
<path d="M18.3519 5.27275L17.8281 5.2467" stroke="#6D62DC" stroke-width="0.32" stroke-linecap="round" stroke-linejoin="round"/>
<path d="M18.3438 5.27283L18.8704 5.36253L19.3797 5.47828L19.8803 5.6577L20.3404 5.8863L20.8006 6.15542L21.2201 6.46216L21.6166 6.82099L21.9638 7.20297" stroke="#6D62DC" stroke-width="0.32" stroke-linecap="round" stroke-linejoin="round"/>
<path d="M21.625 6.82104H21.6395" stroke="#6D62DC" stroke-width="0.32" stroke-linecap="round" stroke-linejoin="round"/>
<path d="M21.9766 7.203L22.2833 7.62549L22.5495 8.0856L22.781 8.54571L22.9604 9.04344L23.0762 9.55563L23.163 10.0794" stroke="#6D62DC" stroke-width="0.32" stroke-linecap="round" stroke-linejoin="round"/>
<path d="M23.1823 10.603L23.1562 10.0792" stroke="#6D62DC" stroke-width="0.32" stroke-linecap="round" stroke-linejoin="round"/>
<path d="M23.1562 11.1268L23.1823 10.603" stroke="#6D62DC" stroke-width="0.32" stroke-linecap="round" stroke-linejoin="round"/>
<path d="M23.163 11.1268L23.0762 11.639L22.9604 12.1512L22.781 12.6489L22.5495 13.1235L22.2833 13.5692L21.9766 13.9917" stroke="#6D62DC" stroke-width="0.32" stroke-linecap="round" stroke-linejoin="round"/>
<path d="M21.625 14.388L21.9723 13.9916" stroke="#6D62DC" stroke-width="0.32" stroke-linecap="round" stroke-linejoin="round"/>
<path d="M21.2266 14.7324L21.623 14.3881" stroke="#6D62DC" stroke-width="0.32" stroke-linecap="round" stroke-linejoin="round"/>
<path d="M21.2283 14.7325L20.8087 15.0393L20.3486 15.32L19.8885 15.5515L19.3879 15.7164L18.8786 15.8466L18.3519 15.9219L17.8281 15.9595" stroke="#6D62DC" stroke-width="0.32" stroke-linecap="round" stroke-linejoin="round"/>
<path d="M15.7812 15.5513L16.3311 14.2202L17.8271 15.9594" stroke="#6D62DC" stroke-width="0.32" stroke-linecap="round" stroke-linejoin="round"/>
<path d="M16.3251 14.2202L14.0391 14.3881" stroke="#6D62DC" stroke-width="0.32" stroke-linecap="round" stroke-linejoin="round"/>
<path d="M12.875 12.6488L14.2032 12.099L14.0383 14.388" stroke="#6D62DC" stroke-width="0.32" stroke-linecap="round" stroke-linejoin="round"/>
<path d="M12.4688 10.603L14.2079 12.0991" stroke="#6D62DC" stroke-width="0.32" stroke-linecap="round" stroke-linejoin="round"/>
<path d="M12.8797 8.54578L14.2079 9.09559L12.4688 10.6032" stroke="#6D62DC" stroke-width="0.32" stroke-linecap="round" stroke-linejoin="round"/>
<path d="M14.0391 6.82104L14.204 9.09554" stroke="#6D62DC" stroke-width="0.32" stroke-linecap="round" stroke-linejoin="round"/>
<path d="M15.7753 5.65771L16.3251 6.97438L14.0391 6.82101" stroke="#6D62DC" stroke-width="0.32" stroke-linecap="round" stroke-linejoin="round"/>
<path d="M17.8242 5.2467L16.3281 6.97428" stroke="#6D62DC" stroke-width="0.32" stroke-linecap="round" stroke-linejoin="round"/>
<path d="M19.8885 5.65762L19.3387 6.97428L17.8281 5.2467" stroke="#6D62DC" stroke-width="0.32" stroke-linecap="round" stroke-linejoin="round"/>
<path d="M21.622 6.82104L19.3359 6.97441" stroke="#6D62DC" stroke-width="0.32" stroke-linecap="round" stroke-linejoin="round"/>
<path d="M22.7776 8.54573L21.4609 9.09554L21.6259 6.82104" stroke="#6D62DC" stroke-width="0.32" stroke-linecap="round" stroke-linejoin="round"/>
<path d="M23.1856 10.603L21.4609 9.09534" stroke="#6D62DC" stroke-width="0.32" stroke-linecap="round" stroke-linejoin="round"/>
<path d="M22.7776 12.6489L21.4609 12.0991L23.1856 10.603" stroke="#6D62DC" stroke-width="0.32" stroke-linecap="round" stroke-linejoin="round"/>
<path d="M21.4609 12.099L21.6259 14.388" stroke="#6D62DC" stroke-width="0.32" stroke-linecap="round" stroke-linejoin="round"/>
<path d="M19.8858 15.5513L19.3359 14.2202L21.622 14.3881" stroke="#6D62DC" stroke-width="0.32" stroke-linecap="round" stroke-linejoin="round"/>
<path d="M19.3387 14.2202L17.8281 15.9594" stroke="#6D62DC" stroke-width="0.32" stroke-linecap="round" stroke-linejoin="round"/>
<path d="M16.3321 14.2201L15.924 12.5099L14.2109 12.099L15.1312 10.6029L14.2109 9.09525L15.924 8.68723L16.3321 6.97412L17.8281 7.90591L19.3387 6.97412L19.7467 8.68723L21.4598 9.09525L20.5396 10.6029L21.4598 12.099L19.7467 12.5099L19.3387 14.2201" stroke="#6D62DC" stroke-width="0.32" stroke-linecap="round" stroke-linejoin="round"/>
<path d="M16.3281 14.2203L17.8242 13.3L19.3347 14.2203" stroke="#6D62DC" stroke-width="0.32" stroke-linecap="round" stroke-linejoin="round"/>
<path d="M17.822 13.3001L15.9179 12.5101L15.125 10.6031L15.9179 8.68744L17.822 7.90613L19.7405 8.68744L20.5334 10.6031L19.7405 12.5101L17.822 13.3001Z" stroke="#6D62DC" stroke-width="0.32" stroke-linecap="round" stroke-linejoin="round"/>
<path d="M10.6905 25.297L15.9368 27.34L10.5834 23.3987L9.90625 23.8241L10.6905 25.297Z" stroke="#6D62DC" stroke-width="0.29" stroke-linecap="round" stroke-linejoin="round"/>
<path d="M13.0001 19.8161L13.3618 20.1691L13.7033 20.5569L14.0071 20.9707L14.2734 21.4135M13.0001 19.8161L10.5809 23.3986M13.0001 19.8161L12.595 19.5094M14.2734 21.4135L14.5483 21.972L14.8087 22.5305L15.0431 23.1121L15.2428 23.7024M14.2734 21.4135L10.5809 23.3986M10.5809 23.3986L15.4338 24.2957L15.2428 23.7082M10.5809 23.3986L11.2407 18.8149L9.48419 23.0311M9.27584 18.5689L9.77356 18.5631L10.2655 18.6036L10.7603 18.6904L11.2436 18.8149L11.7095 19.0059L12.1638 19.2345L12.595 19.5065M9.27584 18.5689L9.48419 23.0311M9.27584 18.5689L8.78968 18.6383L8.31221 18.7541L7.84921 18.9104L7.40357 19.1158M9.48419 23.0311L7.40357 19.1158M9.48419 23.0311L5.9046 20.3601M9.48419 23.0311L9.90378 23.824L9.17166 24.1452M9.48419 23.0311L5.00754 22.1253M7.40357 19.1158L6.98398 19.3676M5.9046 20.3601L6.23449 19.9955L6.59911 19.6656L6.98687 19.3676M5.9046 20.3601L5.62102 20.7682L5.38083 21.1993L5.17248 21.6508L5.00754 22.1253M4.84838 24.1423L4.82812 23.6301L4.8397 23.1237L4.90626 22.6202L5.00754 22.1253M5.00754 22.1253L9.17455 24.1452M9.17166 24.1452H4.84838L4.93809 24.6429M9.17166 24.1452L5.45897 26.0927M9.17166 24.1452L7.19812 28.6681M9.17166 24.1452L9.44078 30.7893M5.45897 26.0927L5.24193 25.6239L5.06831 25.1406L4.93809 24.64M5.45897 26.0927L5.7657 26.628M7.19812 28.6681L6.81325 28.1733L6.43995 27.6814L6.0898 27.1634L5.7686 26.628M7.19812 28.6681L7.61482 29.1224M9.44078 30.7893L8.96042 30.3986L8.49452 29.9935L8.0402 29.5681L7.61192 29.1196M9.44078 30.7893L10.688 25.2969M12.0683 32.3664L11.5185 32.0886L10.9774 31.7992L10.4478 31.4895L9.93851 31.1452L9.43789 30.7893M12.0683 32.3664L10.688 25.2969M12.0683 32.3664L12.6268 32.6007M10.688 25.2969L14.9418 33.3068L15.1502 32.7425M10.688 25.2969L15.7723 30.4015L15.8505 29.7909M14.9389 33.3068L14.3486 33.165L13.7698 33.003L13.194 32.8178L12.6268 32.6036M15.7694 30.4015L15.645 30.9976L15.509 31.585L15.3412 32.1667L15.1444 32.7396M15.4309 24.2928L15.5756 24.8918L15.7087 25.4966L15.8071 26.11L15.8823 26.7235L15.9373 27.3399L15.9517 27.9534L15.946 28.5697L15.9141 29.1774L15.8505 29.788" stroke="#6D62DC" stroke-width="0.29" stroke-linecap="round" stroke-linejoin="round"/>
<path d="M5.45694 26.0899L5.76657 26.6311L6.08778 27.1664L6.43503 27.6786L6.81411 28.1763L7.1932 28.6654L7.61279 29.1255L8.04107 29.5711L8.4925 29.9936L8.9555 30.3988L9.43586 30.7865L9.93648 31.1425L10.4516 31.4839L10.9753 31.7993L11.5165 32.0887L12.0634 32.3636L12.6277 32.5951L13.1891 32.8122L13.7707 33.006L14.3553 33.1652L14.9369 33.3041L15.151 32.734L15.3391 32.1639L15.5099 31.5823L15.6488 30.992L15.7674 30.3988L15.8455 29.7882L15.9092 29.1776L15.9468 28.567V27.9506L15.9324 27.3372L15.8774 26.7208L15.8021 26.1102L15.7066 25.4996L15.5706 24.889L15.4288 24.29L15.2379 23.7026L15.0382 23.1123L14.8067 22.5364L14.5434 21.9692L14.2713 21.4107L14.008 20.9738L13.7042 20.56L13.3627 20.1722L12.9952 19.8105L12.5843 19.5066L12.1618 19.2404L11.7075 19.0118L11.2416 18.8179L10.7554 18.6906L10.2635 18.6096L9.77154 18.5662L9.27381 18.5719L8.78766 18.6414L8.31308 18.7571L7.84719 18.9134L7.40444 19.1189L6.98485 19.3735L6.59708 19.6687L6.23247 19.9986L5.90258 20.3632L5.61899 20.7712L5.37881 21.2024L5.17046 21.6538L5.00551 22.1284L4.90423 22.6232L4.83767 23.1267L4.82031 23.6389L4.84925 24.1453L4.93896 24.646L5.06918 25.1437L5.2428 25.6298L5.45694 26.0899Z" stroke="#6D62DC" stroke-width="0.29" stroke-linecap="round" stroke-linejoin="round"/>
<path d="M14.537 24.7818L14.0132 27.7219L14.8177 31.4664M14.537 24.7818L12.549 22.6375L12.4014 20.7739M14.537 24.7818L14.2708 21.4106M13.4865 32.1696L13.8049 31.1683L14.8177 31.4635L15.9318 27.337L14.537 24.7789L15.4312 24.2899M13.4865 32.1696L10.8301 29.4089L8.10126 28.1964L9.43818 30.7863L13.4865 32.1696ZM13.4865 32.1696L14.9363 33.301M13.4865 32.1696L12.0657 32.3634M9.46132 19.7872L8.53243 21.2369L6.81064 21.1964L7.11448 23.1121L5.97724 24.1857L7.43859 25.3519L8.10126 28.1993M9.46132 19.7872L10.8735 21.1154L12.4043 20.771M9.46132 19.7872L7.40675 19.1187M8.10126 28.1993L7.19551 28.6652M8.10126 28.1993L5.45925 26.0927M5.45925 26.0898L5.98013 24.1828M5.98013 24.1828L4.85156 24.1452M5.98013 24.1828L5.01072 22.1282M5.00783 22.1282L6.81064 21.1935M5.90489 20.363L6.80775 21.1935L7.40386 19.1187M9.27612 18.5718L9.45843 19.7872L11.241 18.8177M11.2439 18.8177L12.4043 20.7739M12.9975 19.8103L12.4014 20.771L14.2708 21.4077M15.7697 30.3986L14.8206 31.4635L14.9392 33.3039" stroke="#6D62DC" stroke-width="0.29" stroke-linecap="round" stroke-linejoin="round"/>
<path d="M7.43348 25.3489L10.8279 29.4118L13.7998 31.1683L14.0081 27.7218L12.5439 22.6375L10.8655 21.1154L8.52442 21.2369L7.10938 23.1121L7.43348 25.3489Z" stroke="#6D62DC" stroke-width="0.29" stroke-linecap="round" stroke-linejoin="round"/>
<path d="M29.2787 23.9863L29.1687 24.4783L29.053 24.9586L28.9141 25.4361" stroke="#6D62DC" stroke-width="0.33" stroke-linecap="round" stroke-linejoin="round"/>
<path d="M28.5703 26.359L28.7439 25.9018L28.9147 25.4359" stroke="#6D62DC" stroke-width="0.33" stroke-linecap="round" stroke-linejoin="round"/>
<path d="M29.4043 21.5035L25.0781 23.4192" stroke="#6D62DC" stroke-width="0.33" stroke-linecap="round" stroke-linejoin="round"/>
<path d="M23.941 24.3768L24.5603 24.643L25.0869 23.4189L23.5156 18.9625" stroke="#6D62DC" stroke-width="0.33" stroke-linecap="round" stroke-linejoin="round"/>
<path d="M25.1752 24.9123L24.5501 24.6432L24.0234 25.8673" stroke="#6D62DC" stroke-width="0.33" stroke-linecap="round" stroke-linejoin="round"/>
<path d="M28.4112 17.6663L28.1913 17.2207L27.9453 16.7866" stroke="#6D62DC" stroke-width="0.33" stroke-linecap="round" stroke-linejoin="round"/>
<path d="M28.4062 17.6663L28.6117 18.1235L28.7882 18.5865L28.959 19.0582" stroke="#6D62DC" stroke-width="0.33" stroke-linecap="round" stroke-linejoin="round"/>
<path d="M25.0781 23.4191L28.9558 19.0582L29.0831 19.5386" stroke="#6D62DC" stroke-width="0.33" stroke-linecap="round" stroke-linejoin="round"/>
<path d="M25.0781 23.419L29.4043 21.5033L29.3551 21.0114" stroke="#6D62DC" stroke-width="0.33" stroke-linecap="round" stroke-linejoin="round"/>
<path d="M29.0781 19.5386L29.1939 20.0218L29.2894 20.5138L29.3501 21.0115" stroke="#6D62DC" stroke-width="0.33" stroke-linecap="round" stroke-linejoin="round"/>
<path d="M29.4013 21.5035L29.3984 21.5093" stroke="#6D62DC" stroke-width="0.33" stroke-linecap="round" stroke-linejoin="round"/>
<path d="M29.4141 22.4961L29.417 22.0042L29.3997 21.5035L25.1719 24.9124" stroke="#6D62DC" stroke-width="0.33" stroke-linecap="round" stroke-linejoin="round"/>
<path d="M25.1719 24.9122L29.2752 23.9862L29.336 23.4943" stroke="#6D62DC" stroke-width="0.33" stroke-linecap="round" stroke-linejoin="round"/>
<path d="M29.4219 22.4961L29.3958 22.9938L29.3438 23.4944" stroke="#6D62DC" stroke-width="0.33" stroke-linecap="round" stroke-linejoin="round"/>
<path d="M22.1277 32.2306L21.6531 32.3782L21.1641 32.5113" stroke="#6D62DC" stroke-width="0.33" stroke-linecap="round" stroke-linejoin="round"/>
<path d="M23.5189 31.6779L23.0588 31.8775L22.6016 32.0685" stroke="#6D62DC" stroke-width="0.33" stroke-linecap="round" stroke-linejoin="round"/>
<path d="M22.5996 32.0685L22.125 32.2305" stroke="#6D62DC" stroke-width="0.33" stroke-linecap="round" stroke-linejoin="round"/>
<path d="M25.2075 30.6274L24.8053 30.9168L24.3828 31.1917" stroke="#6D62DC" stroke-width="0.33" stroke-linecap="round" stroke-linejoin="round"/>
<path d="M25.6034 30.3266L24.0234 25.8673" stroke="#6D62DC" stroke-width="0.33" stroke-linecap="round" stroke-linejoin="round"/>
<path d="M24.022 25.8673L23.5156 31.678L23.9526 31.4407L24.3838 31.1918" stroke="#6D62DC" stroke-width="0.33" stroke-linecap="round" stroke-linejoin="round"/>
<path d="M25.5938 17.6084L26.051 17.4117L26.5082 17.2178" stroke="#6D62DC" stroke-width="0.33" stroke-linecap="round" stroke-linejoin="round"/>
<path d="M27.9372 16.7866L25.0781 23.4191" stroke="#6D62DC" stroke-width="0.33" stroke-linecap="round" stroke-linejoin="round"/>
<path d="M27.9393 16.7866L27.459 16.9082L26.9844 17.0557" stroke="#6D62DC" stroke-width="0.33" stroke-linecap="round" stroke-linejoin="round"/>
<path d="M26.9824 17.0557L26.5078 17.2177" stroke="#6D62DC" stroke-width="0.33" stroke-linecap="round" stroke-linejoin="round"/>
<path d="M19.6875 27.2823L19.6933 26.7845" stroke="#6D62DC" stroke-width="0.33" stroke-linecap="round" stroke-linejoin="round"/>
<path d="M19.6875 27.2824L19.7049 27.783L23.9326 24.3771" stroke="#6D62DC" stroke-width="0.33" stroke-linecap="round" stroke-linejoin="round"/>
<path d="M19.8316 25.2943L19.7679 25.792L19.7188 26.2869" stroke="#6D62DC" stroke-width="0.33" stroke-linecap="round" stroke-linejoin="round"/>
<path d="M19.6875 26.7846L19.7164 26.2869" stroke="#6D62DC" stroke-width="0.33" stroke-linecap="round" stroke-linejoin="round"/>
<path d="M23.9413 24.3771L19.8438 25.2944" stroke="#6D62DC" stroke-width="0.33" stroke-linecap="round" stroke-linejoin="round"/>
<path d="M19.9375 24.8081L20.0532 24.3278" stroke="#6D62DC" stroke-width="0.33" stroke-linecap="round" stroke-linejoin="round"/>
<path d="M20.0547 24.3277L20.1936 23.8502L20.3672 23.3786L20.5408 22.9271" stroke="#6D62DC" stroke-width="0.33" stroke-linecap="round" stroke-linejoin="round"/>
<path d="M19.8438 25.2943L19.9479 24.8081" stroke="#6D62DC" stroke-width="0.33" stroke-linecap="round" stroke-linejoin="round"/>
<path d="M25.6045 30.3264L25.2109 30.6274" stroke="#6D62DC" stroke-width="0.33" stroke-linecap="round" stroke-linejoin="round"/>
<path d="M23.9355 24.3768L20.5469 22.9154" stroke="#6D62DC" stroke-width="0.33" stroke-linecap="round" stroke-linejoin="round"/>
<path d="M20.9809 22.0186L20.761 22.4642L20.5469 22.904" stroke="#6D62DC" stroke-width="0.33" stroke-linecap="round" stroke-linejoin="round"/>
<path d="M20.9922 22.0186L21.2439 21.5903L21.5131 21.1736" stroke="#6D62DC" stroke-width="0.33" stroke-linecap="round" stroke-linejoin="round"/>
<path d="M21.7836 20.7568L21.5 21.1735" stroke="#6D62DC" stroke-width="0.33" stroke-linecap="round" stroke-linejoin="round"/>
<path d="M25.0869 23.4191L23.5156 18.9627L23.9063 18.6588" stroke="#6D62DC" stroke-width="0.33" stroke-linecap="round" stroke-linejoin="round"/>
<path d="M25.0781 23.4192L25.5932 17.6085L25.1534 17.8458" stroke="#6D62DC" stroke-width="0.33" stroke-linecap="round" stroke-linejoin="round"/>
<path d="M23.8984 18.6589L24.3036 18.3637L24.7261 18.0946L25.1543 17.8457" stroke="#6D62DC" stroke-width="0.33" stroke-linecap="round" stroke-linejoin="round"/>
<path d="M22.4315 19.9957L22.1045 20.3777L21.7891 20.7568L23.9333 24.3769" stroke="#6D62DC" stroke-width="0.33" stroke-linecap="round" stroke-linejoin="round"/>
<path d="M23.9344 24.3768L23.509 18.9625L23.1328 19.2924" stroke="#6D62DC" stroke-width="0.33" stroke-linecap="round" stroke-linejoin="round"/>
<path d="M22.4375 19.9958L22.7819 19.6341L23.1378 19.2926" stroke="#6D62DC" stroke-width="0.33" stroke-linecap="round" stroke-linejoin="round"/>
<path d="M28.5605 26.3708L25.1719 24.9124" stroke="#6D62DC" stroke-width="0.33" stroke-linecap="round" stroke-linejoin="round"/>
<path d="M27.8779 27.6962L27.6088 28.1129L27.3281 28.5238" stroke="#6D62DC" stroke-width="0.33" stroke-linecap="round" stroke-linejoin="round"/>
<path d="M28.5591 26.3853L28.3507 26.8164L28.125 27.2679" stroke="#6D62DC" stroke-width="0.33" stroke-linecap="round" stroke-linejoin="round"/>
<path d="M28.1189 27.2677L27.8672 27.696" stroke="#6D62DC" stroke-width="0.33" stroke-linecap="round" stroke-linejoin="round"/>
<path d="M25.1719 24.9124L25.6002 30.3266L25.9734 29.9938" stroke="#6D62DC" stroke-width="0.33" stroke-linecap="round" stroke-linejoin="round"/>
<path d="M26.3354 29.6466L25.9766 29.9939" stroke="#6D62DC" stroke-width="0.33" stroke-linecap="round" stroke-linejoin="round"/>
<path d="M27.0067 28.9084L26.6797 29.2846" stroke="#6D62DC" stroke-width="0.33" stroke-linecap="round" stroke-linejoin="round"/>
<path d="M27.0036 28.9086L27.319 28.5238L25.1719 24.9124" stroke="#6D62DC" stroke-width="0.33" stroke-linecap="round" stroke-linejoin="round"/>
<path d="M26.6881 29.285L26.3438 29.6468" stroke="#6D62DC" stroke-width="0.33" stroke-linecap="round" stroke-linejoin="round"/>
<path d="M20.1537 30.2283L20.0234 29.7479" stroke="#6D62DC" stroke-width="0.33" stroke-linecap="round" stroke-linejoin="round"/>
<path d="M24.0313 25.8673L19.7109 27.783L19.7601 28.2749" stroke="#6D62DC" stroke-width="0.33" stroke-linecap="round" stroke-linejoin="round"/>
<path d="M19.8244 28.7668L19.7578 28.2749" stroke="#6D62DC" stroke-width="0.33" stroke-linecap="round" stroke-linejoin="round"/>
<path d="M19.8203 28.7668L19.9129 29.2646L20.0258 29.7478" stroke="#6D62DC" stroke-width="0.33" stroke-linecap="round" stroke-linejoin="round"/>
<path d="M20.928 32.0656L20.7109 31.62" stroke="#6D62DC" stroke-width="0.33" stroke-linecap="round" stroke-linejoin="round"/>
<path d="M21.167 32.5114L20.9297 32.0658" stroke="#6D62DC" stroke-width="0.33" stroke-linecap="round" stroke-linejoin="round"/>
<path d="M24.026 25.8673L21.1641 32.5114" stroke="#6D62DC" stroke-width="0.33" stroke-linecap="round" stroke-linejoin="round"/>
<path d="M24.0252 25.8673L20.1562 30.2282L20.327 30.6999L20.5006 31.1629" stroke="#6D62DC" stroke-width="0.33" stroke-linecap="round" stroke-linejoin="round"/>
<path d="M20.7084 31.6198L20.5 31.1626" stroke="#6D62DC" stroke-width="0.33" stroke-linecap="round" stroke-linejoin="round"/>
<path d="M26.7975 25.6064L24.3725 28.8416M26.7975 25.6064L27.4833 21.6159M26.7975 25.6064L26.5515 27.9475M26.7975 25.6064L28.3312 23.821M24.3725 28.8416L22.1935 30.1091M24.3725 28.8416L22.5234 31.255M24.3725 28.8416L26.5544 27.9475M22.1935 30.1091L21.6205 27.6552L21.1344 30.656M22.1935 30.1091L22.5234 31.255M22.1935 30.1091L21.1344 30.656M21.1344 30.656L21.1836 32.5254M21.1344 30.656L19.702 27.7796L19.7512 28.2716L19.8148 28.7635M22.5494 21.3294L20.5469 22.9065L20.7611 22.4609M21.7884 20.7536L21.5048 21.1703L21.2357 21.587L20.9839 22.0181L20.764 22.4609M26.974 17.0496L27.4544 16.9049L27.9347 16.7833L26.5775 18.0247M25.5908 17.608L26.0451 17.4055L26.5081 17.2174L26.9769 17.0524M25.5908 17.608L26.5775 18.0247M25.5908 17.608L25.1509 17.8453L24.7226 18.0942L24.3002 18.3604M24.3031 18.3604L23.8979 18.6585L23.5044 18.9594M23.5044 18.9594L26.5775 18.0247M23.5044 18.9594L22.5494 21.3323L21.7884 20.7565L22.1009 20.3745L22.425 19.9896L22.7751 19.6308M23.5044 18.9594L23.1282 19.2922L22.7723 19.6337M26.5775 18.0247L26.9103 19.162M27.9666 18.6238L26.9103 19.1649L27.4833 21.6188M27.9666 18.6238L27.4833 21.6188M27.9666 18.6238L27.9347 16.7862L28.1749 17.2174L28.4006 17.6659L28.6032 18.1202L28.7826 18.5861L28.9475 19.0549M27.9666 18.6238L29.399 21.5002L29.3498 21.0082M27.4833 21.6188L28.3283 23.8238L29.3961 21.5002L29.4134 22.0008V22.4927M22.5234 31.255L23.5102 31.6717M22.5234 31.255L21.1836 32.5254M26.5515 27.9475L25.5966 30.3203L25.9728 29.9876M26.5515 27.9475L28.554 26.3704M26.5515 27.9475L27.3155 28.5175M28.3312 23.821L28.5569 26.3733M28.3312 23.821L29.2716 23.9801M21.1836 32.5254L20.926 32.0624L20.7003 31.6139L20.4978 31.1595L20.3183 30.6936L20.1534 30.2248M21.1836 32.5254L21.6466 32.372M27.3155 28.5175L27 28.9053L26.6788 29.2844L26.3287 29.6432L25.9699 29.9905M27.3155 28.5175L27.5962 28.1066L27.8653 27.6899M27.8682 27.6928L28.1199 27.2616L28.3485 26.816L28.554 26.3733M19.8206 28.7635L19.9132 29.2612L20.0261 29.7445L20.1563 30.2277L21.1373 30.6589M28.745 25.9016L28.5627 26.3617M29.2716 23.9801L29.1646 24.472L29.0459 24.9524L28.907 25.4299L28.7421 25.8987M29.2716 23.9801L29.3324 23.4911L29.3903 22.9933L29.4105 22.4927M27.9666 18.6209L28.9475 19.052L29.0778 19.5353L29.1906 20.0185L29.2861 20.5076L29.3469 21.0053M19.8322 25.2939L19.9364 24.8077L20.055 24.3274L20.1939 23.8499L20.3675 23.3782L20.5412 22.921M20.5441 22.9123L20.7727 25.4559L19.7049 27.7796L19.6875 27.279L19.6933 26.7813L19.7135 26.2806L19.7685 25.7887M20.7727 25.4588L19.8351 25.2939L19.7714 25.7887M22.5263 31.2579L25.5995 30.3232L25.2059 30.6242L24.8037 30.9136L24.3783 31.1856L23.95 31.4344L23.5102 31.6717M23.5102 31.6717L23.0558 31.8743L22.5928 32.0624L22.124 32.2273L21.6437 32.372" stroke="#6D62DC" stroke-width="0.33" stroke-linecap="round" stroke-linejoin="round"/>
<path d="M20.7734 25.4588L21.6213 27.6552L22.3042 23.6733L20.7734 25.4588Z" stroke="#6D62DC" stroke-width="0.33" stroke-linecap="round" stroke-linejoin="round"/>
<path d="M22.5507 21.3323L22.3047 23.6734L24.7354 20.4324L22.5507 21.3323Z" stroke="#6D62DC" stroke-width="0.33" stroke-linecap="round" stroke-linejoin="round"/>
<path d="M26.5777 18.0249L24.7344 20.4325L26.9105 19.1621" stroke="#6D62DC" stroke-width="0.33" stroke-linecap="round" stroke-linejoin="round"/>
<path d="M16.8078 41.9942C16.4664 41.9942 16.1336 41.919 15.8384 41.7251C14.979 41.155 11.5672 38.3654 11.1129 37.995C10.3027 37.5436 2.26669 32.8673 1.25388 25.0628L1.23651 24.9355L1.27124 24.8111C1.27703 24.7879 1.46223 23.9227 0.411793 22.8346L0.319192 22.7102C0.25553 22.5973 -0.291391 21.5556 0.258423 19.5126C0.761938 17.6403 2.48373 13.6151 2.55607 13.4444L2.6342 13.3112C2.75285 13.155 5.54243 9.48859 6.37005 8.63493C6.66232 8.33687 6.79543 8.07065 6.98353 7.70025C7.23528 7.19962 7.5507 6.57747 8.35806 5.73249C9.79337 4.22484 12.6611 2.23682 15.034 1.10536L15.1816 1.03591C17.4705 -0.0550351 18.084 -0.347305 19.5251 0.462948C20.7115 1.13141 23.504 2.99788 23.6227 3.07601L29.7343 7.00285C30.0323 7.23435 35.898 11.9251 35.9848 18.928V18.983L35.9761 19.038C35.9443 19.2261 35.1977 23.6449 33.3891 25.549C31.7802 27.2418 29.9774 30.9111 29.96 30.9487C29.8153 31.1889 27.1183 35.5324 24.9827 37.0719L24.1493 38.2989C23.9873 38.7648 23.3477 39.4245 21.1514 39.7863L19.2068 41.1348C18.9348 41.3171 17.838 42 16.8107 42L16.8078 41.9942ZM2.52424 24.9934C3.54284 32.3377 11.6917 36.8665 11.7727 36.9128L11.8711 36.9793C11.9087 37.0112 15.6909 40.1075 16.5387 40.6718C16.8513 40.8801 17.8207 40.53 18.4949 40.0843L20.6681 38.5796L20.8128 38.5564C22.3754 38.3162 22.8384 37.9603 22.9455 37.8532V37.8069L24.0654 36.1604L24.1638 36.0938C26.0939 34.7743 28.8227 30.3787 28.8488 30.3352C28.8951 30.2311 30.7239 26.5097 32.4689 24.675C33.7306 23.3468 34.509 20.1 34.7144 18.8846C34.6016 12.5241 29.0514 8.07354 28.9964 8.03013L22.9253 4.13224C22.8876 4.10619 20.046 2.20789 18.9 1.56547C18.0551 1.09089 17.9682 1.10826 15.7227 2.17895L15.5751 2.2484C13.3614 3.30462 10.592 5.2174 9.27249 6.60351C8.59535 7.31538 8.34938 7.80153 8.1092 8.27032C7.90953 8.66676 7.70118 9.07768 7.2758 9.51463C6.55525 10.2554 4.06083 13.5196 3.68464 14.0115C3.45024 14.5642 1.92234 18.1843 1.4767 19.8367C1.13234 21.1215 1.32912 21.8392 1.39857 22.033C2.62263 23.3555 2.58211 24.568 2.51845 24.9905L2.52424 24.9934Z" fill="#6D62DC"/>
</svg>
