<svg width="604" height="486" viewBox="0 0 604 486" fill="none" xmlns="http://www.w3.org/2000/svg">
<g clip-path="url(#clip0_2179_4708)">
<rect width="604" height="486" rx="40" fill="url(#paint0_linear_2179_4708)"/>
<g clip-path="url(#clip1_2179_4708)">
<path d="M405.109 120.391V131.891H416.611C412.625 127.872 409.128 124.409 405.109 120.391Z" fill="#8E82E8"/>
<path d="M243.462 139.569H222.746C220.622 139.569 218.923 137.87 218.923 135.746V115H182V198.672H243.43V139.569H243.462Z" fill="#8E82E8"/>
<path d="M240.133 276.985V367.355C240.133 369.609 241.963 371.439 244.217 371.439H270.096V272.901H244.217C241.963 272.901 240.133 274.731 240.133 276.985ZM249.609 282.082H260.653C262.777 282.082 264.476 283.781 264.476 285.905C264.476 288.028 262.777 289.727 260.653 289.727H249.609C247.485 289.727 245.786 288.028 245.786 285.905C245.786 283.781 247.517 282.082 249.609 282.082Z" fill="#8E82E8"/>
<path d="M401.284 139.569C399.16 139.569 397.461 137.87 397.461 135.746V115H360.57V198.672H422.033V139.569H401.284Z" fill="#8E82E8"/>
<path d="M359.756 272.868H277.773V371.438H359.756C362.01 371.438 363.84 369.608 363.84 367.354V276.985C363.84 274.73 362.01 272.901 359.756 272.901V272.868ZM353.286 289.759H288.328C286.204 289.759 284.505 288.06 284.505 285.937C284.505 283.813 286.204 282.114 288.328 282.114H353.286C355.41 282.114 357.109 283.813 357.109 285.937C357.109 288.06 355.41 289.759 353.286 289.759Z" fill="#8E82E8"/>
<path d="M315.836 120.391V131.891H327.338C323.351 127.872 319.855 124.409 315.836 120.391Z" fill="#8E82E8"/>
<path d="M226.57 120.391V131.891H238.072C234.053 127.872 230.589 124.409 226.57 120.391Z" fill="#8E82E8"/>
<path d="M332.726 139.569H312.01C309.886 139.569 308.187 137.87 308.187 135.746V115H271.297V198.672H332.759V139.569H332.726Z" fill="#8E82E8"/>
<path d="M391.29 210.27C389.167 210.27 387.467 211.968 387.467 214.092C387.467 224.384 379.07 232.78 368.777 232.78H314.7C313.425 228.533 310.092 225.2 305.845 223.926V214.974C305.845 212.851 304.145 211.152 302.022 211.152C299.898 211.152 298.199 212.851 298.199 214.974V223.926C293.951 225.2 290.618 228.533 289.344 232.78H235.266C224.973 232.78 216.576 224.384 216.576 214.092C216.576 211.968 214.877 210.27 212.753 210.27C210.629 210.27 208.93 211.968 208.93 214.092C208.93 228.631 220.758 240.425 235.266 240.425H289.344C290.618 244.673 293.951 248.005 298.199 249.279V265.19H305.845V249.279C310.092 248.005 313.425 244.673 314.7 240.425H368.777C383.318 240.425 395.113 228.598 395.113 214.092C395.113 211.968 393.414 210.27 391.29 210.27Z" fill="#8E82E8"/>
</g>
</g>
<defs>
<linearGradient id="paint0_linear_2179_4708" x1="302" y1="0" x2="302" y2="486" gradientUnits="userSpaceOnUse">
<stop stop-color="#201D37"/>
<stop offset="1" stop-color="#201D37" stop-opacity="0.4"/>
</linearGradient>
<clipPath id="clip0_2179_4708">
<rect width="604" height="486" fill="white"/>
</clipPath>
<clipPath id="clip1_2179_4708">
<rect width="240" height="256.438" fill="white" transform="translate(182 115)"/>
</clipPath>
</defs>
</svg>
