<svg width="604" height="486" viewBox="0 0 604 486" fill="none" xmlns="http://www.w3.org/2000/svg">
<g clip-path="url(#clip0_2179_4608)">
<rect width="604" height="486" rx="40" fill="url(#paint0_linear_2179_4608)"/>
<g clip-path="url(#clip1_2179_4608)">
<path d="M317.211 184.435C330.592 184.435 342.266 175.397 345.607 162.481H420V147.844H345.607C341.477 132.202 325.434 122.853 309.741 126.969C299.499 129.659 291.496 137.635 288.798 147.844H185.055V162.481H288.816C292.157 175.397 303.83 184.417 317.211 184.435Z" fill="#8E82E8"/>
<path d="M315.192 278.219C312.659 272.621 307.134 266.675 297.479 262.997C287.824 259.32 282.336 264.937 284.172 270.114C286.007 275.292 293.533 281.421 297.92 289.288C302.307 297.155 304.032 306.248 308.547 313.676C313.063 321.104 319.193 330.307 322.516 337.46C325.838 344.614 339.549 351.475 339.549 351.475L343.771 360H400.873L395 350.852C395 350.852 400.194 331.679 400.873 318.908C401.552 306.138 396.633 281.805 395.936 272.346C395.238 262.888 392.962 262.558 388.098 260.271C385.235 258.917 382.004 258.533 378.921 259.21C377.434 257.143 375.764 255.203 373.946 253.429C368.44 247.94 359.391 254.911 359.391 254.911C359.391 254.911 358.877 248.782 353.701 247.117C349.718 245.818 339.421 246.275 340.173 255.24C340.173 255.24 339.072 200.591 335.639 193.822C332.207 187.052 324.938 191.992 323.58 193.547C322.222 195.103 322.809 254.343 323.213 259.722C323.617 265.101 322.204 287.166 322.204 287.166C319.12 284.842 316.697 281.769 315.192 278.219Z" fill="#8E82E8"/>
<path d="M242.822 235.664C238.766 220.003 222.742 210.599 207.048 214.642C191.336 218.685 181.883 234.639 185.94 250.3C189.996 265.961 206.02 275.365 221.714 271.322C232.066 268.65 240.142 260.6 242.804 250.3H315.618C315.618 246.11 315.49 241.006 315.453 235.664H242.822Z" fill="#8E82E8"/>
<path d="M420.001 235.663H346.984C346.984 236.962 347.021 238.224 347.113 239.487C350.086 239.121 353.097 239.359 355.978 240.2C358.713 241.079 361.136 242.743 362.935 244.994C368.093 243.366 374.168 243.42 379.106 248.269C379.822 248.964 380.446 249.641 381.051 250.281H420.001V235.663Z" fill="#8E82E8"/>
<path d="M185.055 338.119H230.08C234.21 353.761 250.252 363.11 265.945 358.994C276.188 356.304 284.19 348.327 286.889 338.119H314.66C312.329 333.6 309.025 328.294 306.033 323.482H286.87C282.74 307.839 266.698 298.49 251.004 302.607C240.762 305.296 232.76 313.273 230.061 323.482H185.055V338.119Z" fill="#8E82E8"/>
<path d="M420 323.482H407.904C407.409 328.276 406.509 333.453 405.555 338.119H420V323.482Z" fill="#8E82E8"/>
</g>
</g>
<defs>
<linearGradient id="paint0_linear_2179_4608" x1="302" y1="0" x2="302" y2="486" gradientUnits="userSpaceOnUse">
<stop stop-color="#201D37"/>
<stop offset="1" stop-color="#201D37" stop-opacity="0.4"/>
</linearGradient>
<clipPath id="clip0_2179_4608">
<rect width="604" height="486" fill="white"/>
</clipPath>
<clipPath id="clip1_2179_4608">
<rect width="235" height="234" fill="white" transform="translate(185 126)"/>
</clipPath>
</defs>
</svg>
