<svg width="604" height="486" viewBox="0 0 604 486" fill="none" xmlns="http://www.w3.org/2000/svg">
<rect width="604" height="486" rx="40" transform="matrix(-1 0 0 1 604 0)" fill="url(#paint0_linear_2179_4671)"/>
<g clip-path="url(#clip0_2179_4671)">
<path d="M299.75 256.239H329.772L366.876 292.68H352.794V300.373H376.354C378.481 300.373 380.204 298.645 380.204 296.513V272.894H372.53V287.254L340.785 256.212H395.04L384.943 266.334L390.328 271.733L406.969 255.051C408.423 253.567 408.423 251.164 406.969 249.653L390.328 232.971L384.943 238.369L395.04 248.492H340.65L372.396 217.45V231.81H380.07V208.191C380.07 206.059 378.346 204.331 376.219 204.331H352.659V212.024H366.741L329.638 248.465H299.75" fill="#8E82E8"/>
<path d="M234.997 286.094H283.033C285.671 286.094 287.826 283.935 287.826 281.289V271.653C287.826 262.448 281.336 254.755 272.72 252.839C268.816 255.592 264.104 257.184 259.015 257.184C253.926 257.184 249.16 255.565 245.283 252.839C236.667 254.728 230.204 262.448 230.204 271.653V281.289C230.204 283.935 232.331 286.094 234.997 286.094ZM259.015 218.665C266.985 218.665 273.42 225.144 273.42 233.107C273.42 241.069 266.958 247.548 259.015 247.548C251.072 247.548 244.61 241.069 244.61 233.107C244.61 225.144 251.072 218.665 259.015 218.665ZM285.537 299.348H232.466C221.265 299.348 212.164 290.224 212.164 278.995V225.791C212.164 214.562 221.265 205.438 232.466 205.438H285.537C296.738 205.438 305.839 214.562 305.839 225.791V278.995C305.839 290.224 296.738 299.348 285.537 299.348ZM232.466 212.646C225.25 212.646 219.38 218.53 219.38 225.764V278.968C219.38 286.202 225.25 292.087 232.466 292.087H285.537C292.753 292.087 298.623 286.202 298.623 278.968V225.764C298.623 218.53 292.753 212.646 285.537 212.646H232.466Z" fill="#8E82E8"/>
<path d="M193.179 283.664C189.975 273.11 188.225 261.908 188.225 250.301C188.225 187.326 239.222 136.254 301.987 136.254V151.182L329.828 126.618L301.987 102V116.981C228.614 116.981 169 176.663 169 250.328C169 262.448 170.616 274.163 173.658 285.338L175.22 277.618L193.179 283.691V283.664Z" fill="#8E82E8"/>
<path d="M435.005 250.327C435.005 188.432 392.947 136.416 335.918 121.381L341.842 126.618L327.625 139.169C378.138 150.83 415.78 196.152 415.78 250.327C415.78 271.112 410.233 290.574 400.54 307.364L387.643 299.914L394.966 336.382L430.132 324.505L417.18 317.028C428.489 297.404 434.978 274.648 434.978 250.354L435.005 250.327Z" fill="#8E82E8"/>
<path d="M385.211 328.095C364.451 350.418 334.833 364.401 301.984 364.401C259.899 364.401 223.118 341.457 203.435 307.391L216.333 299.914L181.168 288.037L173.844 324.505L186.768 317.001C209.763 356.843 252.763 383.674 301.957 383.674C338.845 383.674 372.233 368.612 396.305 344.291L388.927 346.774L385.184 328.095H385.211Z" fill="#8E82E8"/>
</g>
<defs>
<linearGradient id="paint0_linear_2179_4671" x1="302" y1="0" x2="302" y2="486" gradientUnits="userSpaceOnUse">
<stop stop-color="#201D37"/>
<stop offset="1" stop-color="#201D37" stop-opacity="0.4"/>
</linearGradient>
<clipPath id="clip0_2179_4671">
<rect width="266" height="281.647" fill="white" transform="translate(169 102)"/>
</clipPath>
</defs>
</svg>
