<svg width="604" height="486" viewBox="0 0 604 486" fill="none" xmlns="http://www.w3.org/2000/svg">
<rect width="604" height="486" rx="40" transform="matrix(-1 0 0 1 604 0)" fill="url(#paint0_linear_2179_4618)"/>
<g clip-path="url(#clip0_2179_4618)">
<path d="M216.226 168.635V261.939C225.529 249.776 237.76 240.046 250.679 231.706V168.461C260.843 162.38 267.906 151.26 267.906 138.576C267.906 119.463 252.574 103.826 233.453 103.826C214.332 103.826 199 119.637 199 138.75C199 151.607 205.891 162.727 216.226 168.635ZM233.453 121.375C242.928 121.375 250.679 129.193 250.679 138.75C250.679 148.306 242.928 156.125 233.453 156.125C223.978 156.125 216.226 148.306 216.226 138.75C216.226 129.193 223.978 121.375 233.453 121.375Z" fill="#8E82E8"/>
<path d="M371.265 104C352.316 104 336.812 119.637 336.812 138.75C336.812 151.608 343.703 162.728 354.038 168.635V173.5C354.038 195.914 331.644 208.771 294.607 227.536C257.915 246.128 216.226 267.151 216.226 312.5V317.365C205.891 323.446 199 334.393 199 347.25C199 366.362 214.332 382 233.453 382C252.574 382 267.906 366.362 267.906 347.25C267.906 334.393 260.843 323.272 250.679 317.365V312.5C250.679 290.086 273.074 277.229 310.111 258.637C346.803 240.046 388.491 219.022 388.491 173.5V168.635C398.827 162.554 405.718 151.434 405.718 138.75C405.718 119.637 390.214 104 371.265 104ZM233.453 364.625C223.978 364.625 216.226 356.806 216.226 347.25C216.226 337.694 223.978 329.875 233.453 329.875C242.928 329.875 250.679 337.694 250.679 347.25C250.679 356.806 242.928 364.625 233.453 364.625ZM371.265 156.125C361.79 156.125 354.038 148.306 354.038 138.75C354.038 129.194 361.79 121.375 371.265 121.375C380.74 121.375 388.491 129.194 388.491 138.75C388.491 148.306 380.74 156.125 371.265 156.125Z" fill="#8E82E8"/>
</g>
<defs>
<linearGradient id="paint0_linear_2179_4618" x1="302" y1="0" x2="302" y2="486" gradientUnits="userSpaceOnUse">
<stop stop-color="#201D37"/>
<stop offset="1" stop-color="#201D37" stop-opacity="0.4"/>
</linearGradient>
<clipPath id="clip0_2179_4618">
<rect width="206.718" height="278" fill="white" transform="translate(199 104)"/>
</clipPath>
</defs>
</svg>
