<svg width="604" height="486" viewBox="0 0 604 486" fill="none" xmlns="http://www.w3.org/2000/svg">
<g clip-path="url(#clip0_2179_4666)">
<rect width="604" height="486" rx="40" fill="url(#paint0_linear_2179_4666)"/>
<g clip-path="url(#clip1_2179_4666)">
<path fill-rule="evenodd" clip-rule="evenodd" d="M354.577 166.275H319.792C315.23 166.275 311.102 164.404 308.088 161.422C305.101 158.439 303.227 154.29 303.227 149.735V115H197.894C191.35 115 186 120.342 186 126.877V333.903C186 340.438 191.35 345.779 197.894 345.779H291.822C291.632 345.508 291.469 345.237 291.334 344.939L284.138 327.151C283.513 325.606 284.083 323.87 285.414 322.948L293.506 316.576L293.805 316.332C293.479 313.729 293.343 311.126 293.37 308.496C293.37 305.865 293.56 303.262 293.913 300.686L293.642 300.442L285.495 293.772C284.246 292.769 283.893 291.088 284.491 289.705L292.012 272.053C292.556 270.697 293.859 269.91 295.19 269.91C295.325 269.91 295.488 269.91 295.624 269.938L306.106 271.158L306.486 271.212C308.088 269.151 309.853 267.199 311.7 265.382C313.573 263.538 315.583 261.83 317.647 260.257V259.905L316.588 249.411C316.425 247.811 317.375 246.374 318.787 245.805L336.574 238.619C338.149 237.996 339.886 238.565 340.783 239.894L347.191 247.974L347.435 248.245C350.015 247.947 352.622 247.811 355.256 247.811C355.473 247.811 355.663 247.838 355.853 247.838V166.031C355.446 166.194 355.012 166.275 354.577 166.275ZM259.78 192.713C256.738 192.713 254.24 190.218 254.24 187.127C254.24 186.612 253.778 186.178 253.235 186.178H246.257L245.062 183.005H263.934V230.213H262.821L260.784 224.79V193.689C260.784 193.147 260.323 192.713 259.78 192.713ZM258.775 194.611V219.53L246.99 188.13H252.285C252.747 191.493 255.408 194.15 258.775 194.611ZM258.829 225.17C258.829 225.17 258.829 225.224 258.856 225.278L260.73 230.213H256.657C256.928 229.942 257.064 229.536 256.901 229.156L240.147 184.687C240.147 184.687 240.12 184.687 240.12 184.632C240.092 184.578 240.065 184.524 240.011 184.47C239.957 184.415 239.902 184.334 239.821 184.28C239.794 184.28 239.767 184.253 239.739 184.226C239.658 184.171 239.549 184.117 239.441 184.09C239.386 184.09 239.359 184.063 239.332 184.063C239.169 184.063 239.033 184.063 238.898 184.09C238.246 184.334 237.567 184.47 236.915 184.47C236.128 184.47 235.367 184.28 234.634 183.955C233.277 183.358 232.272 182.246 231.729 180.863C231.593 180.457 231.24 180.213 230.833 180.213C230.697 180.213 230.588 180.213 230.452 180.267L214.35 186.341C214.105 186.422 213.942 186.558 213.834 186.775C213.807 186.802 213.779 186.829 213.779 186.856C213.752 186.91 213.752 186.964 213.725 187.046C213.725 187.073 213.725 187.181 213.725 187.208C213.725 187.235 213.698 187.235 213.698 187.235C213.698 187.371 213.725 187.48 213.779 187.615C214.024 188.239 214.132 188.862 214.132 189.513C214.132 191.845 212.693 193.933 210.548 194.719C210.304 194.828 210.086 195.018 209.978 195.262C209.896 195.479 209.842 195.75 209.951 195.994L222.822 230.213H219.428L203.216 187.127L239.441 173.542L244.682 187.48C244.682 187.48 244.763 187.615 244.79 187.696L258.856 225.17H258.829ZM215.843 187.859L230.317 182.409C231.104 183.873 232.299 185.066 233.847 185.744C234.797 186.178 235.856 186.422 236.915 186.422C237.486 186.422 238.056 186.314 238.626 186.178L254.783 229.02C254.159 229.346 253.616 229.752 253.127 230.213H224.913L212.096 196.184C214.513 194.882 216.06 192.333 216.06 189.54C216.06 188.971 215.979 188.401 215.843 187.859ZM203.108 221.292C204.112 220.316 205.416 219.801 206.828 219.801H213.345L217.282 230.213H206.828C206.828 230.213 206.828 230.241 206.773 230.241C203.922 230.186 201.614 227.882 201.614 225.007C201.614 223.624 202.157 222.269 203.108 221.292ZM201.614 229.915C202.917 231.325 204.764 232.193 206.828 232.166H270.805V246.754H259.861C255.761 246.754 252.448 250.279 252.882 254.455C253.235 258.088 256.521 260.773 260.187 260.773H270.805V275.361H206.773C203.922 275.361 201.614 273.056 201.614 270.209V229.915ZM270.777 248.733V258.82H259.834C257.064 258.82 254.783 256.57 254.783 253.777C254.783 250.984 257.064 248.733 259.834 248.733H270.777ZM277.349 304.401H203.868C201.913 304.401 200.338 302.829 200.338 300.876C200.338 298.924 201.913 297.351 203.868 297.351H277.349C279.304 297.351 280.879 298.924 280.879 300.876C280.879 302.829 279.304 304.401 277.349 304.401ZM281.612 263.077H272.76V231.217C272.76 230.647 272.325 230.213 271.782 230.213H265.917V219.801H281.612V263.077ZM284.083 159.252C284.083 161.178 282.535 162.723 280.607 162.723H207.344C205.443 162.723 203.868 161.178 203.868 159.252V142.929C203.868 141.004 205.443 139.458 207.344 139.458H280.607C282.535 139.458 284.083 141.004 284.083 142.929V159.252ZM310.288 123.514V149.708C310.288 152.338 311.374 154.697 313.085 156.405C314.795 158.114 317.185 159.198 319.792 159.198H346.023L310.288 123.514ZM409.647 321.755C408.588 320.996 407.991 319.667 408.208 318.284C408.724 315.329 408.995 312.427 408.995 309.553C409.05 306.625 408.805 303.696 408.371 300.822C408.181 299.602 408.642 298.327 409.674 297.514L411.521 296.05L417.739 291.169L415.105 284.715L412.526 278.262L404.651 279.048L402.451 279.238C401.202 279.428 399.844 278.913 399.057 277.801C397.373 275.442 395.5 273.191 393.436 271.104C391.453 269.07 389.281 267.199 386.946 265.464C385.86 264.758 385.235 263.484 385.398 262.128L385.669 259.769L386.593 251.933L380.184 249.221L373.776 246.483L368.752 252.584L367.394 254.238C366.634 255.295 365.303 255.919 363.918 255.675C360.986 255.16 358.053 254.888 355.202 254.888C352.242 254.861 349.309 255.078 346.431 255.512C345.209 255.675 343.933 255.241 343.118 254.211L341.651 252.313L336.764 246.13L330.274 248.733L323.838 251.336L324.598 259.2L324.815 261.369C325.006 262.643 324.49 263.999 323.349 264.786C320.96 266.467 318.706 268.338 316.615 270.371C314.578 272.378 312.704 274.547 310.967 276.879C310.261 277.937 308.984 278.56 307.626 278.425L305.264 278.126L297.416 277.204L294.674 283.604L291.958 290.03L298.068 295.019L299.724 296.375C300.783 297.134 301.381 298.463 301.164 299.846C300.648 302.801 300.376 305.703 300.349 308.577C300.349 311.505 300.539 314.434 301.001 317.308C301.191 318.501 300.729 319.776 299.697 320.589L297.824 322.081L291.632 326.961L296.846 339.868L304.694 339.082L306.893 338.865C308.17 338.675 309.5 339.19 310.288 340.329C311.998 342.715 313.845 344.966 315.909 347.054C317.918 349.087 320.063 350.958 322.426 352.694C323.485 353.399 324.109 354.673 323.974 356.029L323.675 358.361L322.752 366.224L329.16 368.936L335.596 371.675L340.592 365.574L341.95 363.92C342.711 362.862 344.041 362.266 345.426 362.482C348.359 362.998 351.291 363.269 354.143 363.296C357.103 363.296 360.035 363.106 362.914 362.645C364.109 362.455 365.385 362.916 366.199 363.947L367.693 365.818L372.581 372L379.044 369.397L385.507 366.794L384.719 358.957L384.502 356.761C384.312 355.46 384.828 354.158 385.968 353.345C388.358 351.663 390.612 349.792 392.703 347.759C394.739 345.779 396.613 343.583 398.351 341.251C399.057 340.194 400.333 339.543 401.691 339.706L404.053 339.977L411.928 340.899L414.644 334.499L417.359 328.1L411.276 323.111L409.62 321.755H409.647ZM379.234 319.505C373.477 333.035 357.809 339.326 344.258 333.577C330.708 327.829 324.408 312.21 330.165 298.68C335.922 285.149 351.59 278.831 365.113 284.58C378.664 290.328 384.991 305.974 379.234 319.505Z" fill="#8E82E8"/>
</g>
</g>
<defs>
<linearGradient id="paint0_linear_2179_4666" x1="302" y1="0" x2="302" y2="486" gradientUnits="userSpaceOnUse">
<stop stop-color="#201D37"/>
<stop offset="1" stop-color="#201D37" stop-opacity="0.4"/>
</linearGradient>
<clipPath id="clip0_2179_4666">
<rect width="604" height="486" fill="white"/>
</clipPath>
<clipPath id="clip1_2179_4666">
<rect width="231.739" height="257" fill="white" transform="translate(186 115)"/>
</clipPath>
</defs>
</svg>
