<svg width="24" height="25" viewBox="0 0 24 25" fill="none" xmlns="http://www.w3.org/2000/svg">
<g clip-path="url(#clip0_2630_67343)">
<path d="M18.364 18.1686L12 24.5326L5.636 18.1686C4.37734 16.9099 3.52018 15.3063 3.17292 13.5605C2.82566 11.8146 3.0039 10.005 3.68509 8.36051C4.36628 6.71598 5.51984 5.31038 6.99988 4.32145C8.47992 3.33253 10.22 2.80469 12 2.80469C13.78 2.80469 15.5201 3.33253 17.0001 4.32145C18.4802 5.31038 19.6337 6.71598 20.3149 8.36051C20.9961 10.005 21.1743 11.8146 20.8271 13.5605C20.4798 15.3063 19.6227 16.9099 18.364 18.1686ZM12 15.8046C13.0609 15.8046 14.0783 15.3832 14.8284 14.633C15.5786 13.8829 16 12.8655 16 11.8046C16 10.7437 15.5786 9.72633 14.8284 8.97618C14.0783 8.22604 13.0609 7.80461 12 7.80461C10.9391 7.80461 9.92171 8.22604 9.17157 8.97618C8.42142 9.72633 8 10.7437 8 11.8046C8 12.8655 8.42142 13.8829 9.17157 14.633C9.92171 15.3832 10.9391 15.8046 12 15.8046ZM12 13.8046C11.4696 13.8046 10.9609 13.5939 10.5858 13.2188C10.2107 12.8438 10 12.335 10 11.8046C10 11.2742 10.2107 10.7655 10.5858 10.3904C10.9609 10.0153 11.4696 9.80461 12 9.80461C12.5304 9.80461 13.0391 10.0153 13.4142 10.3904C13.7893 10.7655 14 11.2742 14 11.8046C14 12.335 13.7893 12.8438 13.4142 13.2188C13.0391 13.5939 12.5304 13.8046 12 13.8046Z" fill="white"/>
</g>
<defs>
<clipPath id="clip0_2630_67343">
<rect width="24" height="24" fill="white" transform="translate(0 0.804688)"/>
</clipPath>
</defs>
</svg>
