<svg width="204" height="64" viewBox="0 0 204 64" fill="none" xmlns="http://www.w3.org/2000/svg">
<path fill-rule="evenodd" clip-rule="evenodd" d="M35.8394 41.0664C37.0692 42.0718 37.2663 43.9027 36.2795 45.1558L24.6025 59.9861C24.0943 60.6312 23.3408 61.0255 22.5301 61.0703C21.7194 61.115 20.9285 60.8059 20.3549 60.2204L14.9435 54.6954C13.8298 53.5583 13.8315 51.7164 14.9476 50.5816C16.0635 49.4466 17.8712 49.4485 18.9851 50.5856L22.1442 53.8112L31.8261 41.515C32.8128 40.2617 34.6096 40.0609 35.8394 41.0664Z" fill="#FFD527"/>
<path fill-rule="evenodd" clip-rule="evenodd" d="M51.4744 41.3313C52.7187 42.3182 52.9421 44.146 51.9736 45.4137L40.8658 59.953C40.3628 60.6118 39.6062 61.0184 38.7885 61.0696C37.9709 61.1209 37.1712 60.812 36.5925 60.221L33.7443 57.3133C32.6306 56.176 32.6322 54.3343 33.7484 53.1993C34.8643 52.0643 36.672 52.0661 37.7859 53.2034L38.348 53.7775L47.468 41.84C48.4365 40.5721 50.2303 40.3444 51.4744 41.3313Z" fill="#FFD527"/>
<path fill-rule="evenodd" clip-rule="evenodd" d="M30.0686 8.15194C18.2806 8.15194 8.71459 17.9102 8.71459 29.9598C8.71459 34.5606 10.1065 38.8202 12.4829 42.3348C13.3774 43.6579 13.0499 45.4692 11.7516 46.3807C10.4532 47.2922 8.67555 46.9587 7.78101 45.6356C4.76877 41.1806 3.00488 35.776 3.00488 29.9598C3.00488 14.708 15.1164 2.33393 30.0686 2.33393C45.0208 2.33393 57.1323 14.708 57.1323 29.9598C57.1323 31.1686 57.056 32.3604 56.908 33.5306C56.7063 35.1241 55.2751 36.2493 53.7115 36.0437C52.1477 35.8383 51.0434 34.3798 51.2452 32.7866C51.3621 31.8624 51.4226 30.919 51.4226 29.9598C51.4226 17.9102 41.8566 8.15194 30.0686 8.15194Z" fill="#7263E1"/>
<path d="M22.3796 31.414C25.2108 31.414 27.506 29.0705 27.506 26.1798C27.506 23.2891 25.2108 20.9456 22.3796 20.9456C19.5481 20.9456 17.2529 23.2891 17.2529 26.1798C17.2529 29.0705 19.5481 31.414 22.3796 31.414Z" fill="#7263E1"/>
<path d="M72.1658 3.21597H76.8028L81.7004 15.1646H81.9088L86.8064 3.21597H91.4434V21H87.7963V9.42475H87.6487L83.0464 20.9132H80.5628L75.9605 9.38133H75.8129V21H72.1658V3.21597ZM100.498 21.2605C99.1494 21.2605 97.9829 20.9739 96.9987 20.4008C96.0204 19.8219 95.2649 19.0172 94.7323 17.9868C94.1997 16.9505 93.9334 15.7493 93.9334 14.3831C93.9334 13.0053 94.1997 11.8012 94.7323 10.7707C95.2649 9.73447 96.0204 8.92978 96.9987 8.35667C97.9829 7.77776 99.1494 7.48831 100.498 7.48831C101.847 7.48831 103.011 7.77776 103.989 8.35667C104.973 8.92978 105.732 9.73447 106.264 10.7707C106.797 11.8012 107.063 13.0053 107.063 14.3831C107.063 15.7493 106.797 16.9505 106.264 17.9868C105.732 19.0172 104.973 19.8219 103.989 20.4008C103.011 20.9739 101.847 21.2605 100.498 21.2605ZM100.516 18.3949C101.129 18.3949 101.642 18.2212 102.053 17.8739C102.464 17.5208 102.773 17.0403 102.982 16.4324C103.196 15.8246 103.303 15.1328 103.303 14.357C103.303 13.5813 103.196 12.8895 102.982 12.2817C102.773 11.6738 102.464 11.1933 102.053 10.8402C101.642 10.487 101.129 10.3105 100.516 10.3105C99.8962 10.3105 99.3752 10.487 98.9526 10.8402C98.5357 11.1933 98.2202 11.6738 98.006 12.2817C97.7976 12.8895 97.6934 13.5813 97.6934 14.357C97.6934 15.1328 97.7976 15.8246 98.006 16.4324C98.2202 17.0403 98.5357 17.5208 98.9526 17.8739C99.3752 18.2212 99.8962 18.3949 100.516 18.3949ZM109.538 21V3.21597H113.237V9.90235H113.35C113.512 9.54343 113.747 9.17872 114.053 8.80821C114.366 8.43192 114.771 8.11932 115.269 7.87039C115.773 7.61567 116.398 7.48831 117.145 7.48831C118.117 7.48831 119.015 7.74303 119.837 8.25246C120.659 8.75611 121.316 9.51738 121.808 10.5363C122.3 11.5493 122.546 12.82 122.546 14.3484C122.546 15.8361 122.306 17.0924 121.825 18.117C121.35 19.1359 120.702 19.9088 119.88 20.4356C119.064 20.9566 118.149 21.2171 117.136 21.2171C116.418 21.2171 115.807 21.0984 115.304 20.8611C114.806 20.6237 114.398 20.3256 114.079 19.9667C113.761 19.6019 113.518 19.2343 113.35 18.8638H113.185V21H109.538ZM113.159 14.331C113.159 15.1241 113.269 15.8159 113.489 16.4064C113.709 16.9969 114.027 17.4571 114.444 17.7871C114.861 18.1113 115.367 18.2733 115.964 18.2733C116.566 18.2733 117.075 18.1084 117.492 17.7784C117.909 17.4426 118.224 16.9795 118.439 16.389C118.659 15.7927 118.769 15.1067 118.769 14.331C118.769 13.561 118.661 12.8837 118.447 12.299C118.233 11.7143 117.918 11.257 117.501 10.927C117.084 10.597 116.572 10.432 115.964 10.432C115.362 10.432 114.852 10.5912 114.435 10.9096C114.024 11.228 113.709 11.6796 113.489 12.2643C113.269 12.849 113.159 13.5379 113.159 14.331ZM125.014 21V7.66198H128.713V21H125.014ZM126.873 5.94262C126.323 5.94262 125.851 5.76027 125.457 5.39556C125.069 5.02506 124.875 4.58219 124.875 4.06696C124.875 3.55753 125.069 3.12045 125.457 2.75574C125.851 2.38524 126.323 2.19999 126.873 2.19999C127.422 2.19999 127.891 2.38524 128.279 2.75574C128.673 3.12045 128.87 3.55753 128.87 4.06696C128.87 4.58219 128.673 5.02506 128.279 5.39556C127.891 5.76027 127.422 5.94262 126.873 5.94262ZM148.089 12.108C148.089 14.0473 147.721 15.6972 146.986 17.0576C146.257 18.4181 145.261 19.4572 143.999 20.1751C142.743 20.8871 141.33 21.2431 139.761 21.2431C138.181 21.2431 136.762 20.8842 135.506 20.1664C134.25 19.4485 133.257 18.4094 132.528 17.049C131.798 15.6885 131.434 14.0415 131.434 12.108C131.434 10.1686 131.798 8.51876 132.528 7.15833C133.257 5.7979 134.25 4.76165 135.506 4.0496C136.762 3.33175 138.181 2.97283 139.761 2.97283C141.33 2.97283 142.743 3.33175 143.999 4.0496C145.261 4.76165 146.257 5.7979 146.986 7.15833C147.721 8.51876 148.089 10.1686 148.089 12.108ZM144.277 12.108C144.277 10.8518 144.089 9.79236 143.712 8.92979C143.342 8.06721 142.818 7.41305 142.14 6.96729C141.463 6.52153 140.67 6.29865 139.761 6.29865C138.852 6.29865 138.059 6.52153 137.382 6.96729C136.705 7.41305 136.178 8.06721 135.801 8.92979C135.431 9.79236 135.246 10.8518 135.246 12.108C135.246 13.3642 135.431 14.4236 135.801 15.2862C136.178 16.1488 136.705 16.8029 137.382 17.2487C138.059 17.6944 138.852 17.9173 139.761 17.9173C140.67 17.9173 141.463 17.6944 142.14 17.2487C142.818 16.8029 143.342 16.1488 143.712 15.2862C144.089 14.4236 144.277 13.3642 144.277 12.108ZM157.977 7.66198V10.4407H149.745V7.66198H157.977ZM151.629 21V6.6981C151.629 5.73132 151.818 4.92954 152.194 4.29274C152.576 3.65594 153.097 3.17834 153.757 2.85994C154.417 2.54154 155.167 2.38234 156.006 2.38234C156.573 2.38234 157.091 2.42576 157.56 2.5126C158.035 2.59943 158.388 2.67759 158.62 2.74706L157.96 5.52581C157.815 5.4795 157.636 5.43608 157.421 5.39556C157.213 5.35503 156.999 5.33477 156.779 5.33477C156.235 5.33477 155.856 5.46213 155.641 5.71685C155.427 5.96578 155.32 6.31602 155.32 6.76757V21H151.629ZM167.41 7.66198V10.4407H159.178V7.66198H167.41ZM161.062 21V6.6981C161.062 5.73132 161.25 4.92954 161.627 4.29274C162.009 3.65594 162.53 3.17834 163.19 2.85994C163.85 2.54154 164.599 2.38234 165.439 2.38234C166.006 2.38234 166.524 2.42576 166.993 2.5126C167.468 2.59943 167.821 2.67759 168.052 2.74706L167.392 5.52581C167.248 5.4795 167.068 5.43608 166.854 5.39556C166.646 5.35503 166.431 5.33477 166.211 5.33477C165.667 5.33477 165.288 5.46213 165.074 5.71685C164.86 5.96578 164.753 6.31602 164.753 6.76757V21H161.062ZM169.67 21V7.66198H173.369V21H169.67ZM171.528 5.94262C170.978 5.94262 170.506 5.76027 170.113 5.39556C169.725 5.02506 169.531 4.58219 169.531 4.06696C169.531 3.55753 169.725 3.12045 170.113 2.75574C170.506 2.38524 170.978 2.19999 171.528 2.19999C172.078 2.19999 172.547 2.38524 172.935 2.75574C173.328 3.12045 173.525 3.55753 173.525 4.06696C173.525 4.58219 173.328 5.02506 172.935 5.39556C172.547 5.76027 172.078 5.94262 171.528 5.94262ZM182.359 21.2605C180.992 21.2605 179.817 20.9711 178.833 20.3921C177.855 19.8075 177.102 18.997 176.575 17.9607C176.054 16.9245 175.794 15.7319 175.794 14.3831C175.794 13.0169 176.057 11.8185 176.584 10.7881C177.117 9.75183 177.872 8.94426 178.85 8.36535C179.829 7.78065 180.992 7.48831 182.341 7.48831C183.505 7.48831 184.524 7.69961 185.398 8.12221C186.272 8.54481 186.964 9.13819 187.473 9.90235C187.983 10.6665 188.263 11.5638 188.316 12.5943H184.825C184.726 11.9285 184.466 11.393 184.043 10.9878C183.626 10.5768 183.079 10.3713 182.402 10.3713C181.829 10.3713 181.328 10.5276 180.9 10.8402C180.477 11.147 180.147 11.5957 179.91 12.1861C179.672 12.7766 179.554 13.4916 179.554 14.331C179.554 15.182 179.67 15.9056 179.901 16.5019C180.139 17.0982 180.471 17.5526 180.9 17.8652C181.328 18.1778 181.829 18.3341 182.402 18.3341C182.825 18.3341 183.204 18.2473 183.54 18.0736C183.881 17.9 184.162 17.6481 184.382 17.3182C184.608 16.9824 184.755 16.58 184.825 16.1111H188.316C188.258 17.13 187.98 18.0273 187.482 18.803C186.99 19.573 186.31 20.1751 185.441 20.6092C184.573 21.0434 183.545 21.2605 182.359 21.2605ZM196.763 21.2605C195.391 21.2605 194.21 20.9826 193.22 20.4269C192.235 19.8653 191.477 19.0722 190.945 18.0476C190.412 17.0171 190.146 15.7985 190.146 14.3918C190.146 13.0198 190.412 11.8156 190.945 10.7794C191.477 9.74315 192.227 8.93557 193.194 8.35667C194.166 7.77776 195.307 7.48831 196.615 7.48831C197.495 7.48831 198.314 7.63014 199.072 7.9138C199.837 8.19168 200.502 8.61139 201.07 9.17293C201.643 9.73447 202.088 10.4407 202.407 11.2917C202.725 12.1369 202.884 13.1269 202.884 14.2615V15.2775H191.622V12.985H199.402C199.402 12.4524 199.287 11.9806 199.055 11.5696C198.823 11.1586 198.502 10.8373 198.091 10.6057C197.686 10.3684 197.214 10.2497 196.676 10.2497C196.114 10.2497 195.616 10.3799 195.182 10.6405C194.754 10.8952 194.418 11.2396 194.175 11.6738C193.932 12.1022 193.807 12.5798 193.801 13.1066V15.2862C193.801 15.9461 193.923 16.5164 194.166 16.9969C194.415 17.4773 194.765 17.8479 195.217 18.1084C195.668 18.3689 196.204 18.4991 196.823 18.4991C197.234 18.4991 197.611 18.4412 197.952 18.3254C198.294 18.2097 198.586 18.036 198.829 17.8044C199.072 17.5729 199.258 17.2892 199.385 16.9534L202.806 17.1792C202.633 18.0013 202.277 18.7191 201.738 19.3327C201.206 19.9406 200.517 20.4153 199.672 20.7569C198.832 21.0926 197.862 21.2605 196.763 21.2605Z" fill="black"/>
<rect x="70.6201" y="29.446" width="133.38" height="34.4566" rx="8.89201" fill="#7263E1"/>
<path d="M119.856 55.1743V37.3903H123.616V44.7279H131.249V37.3903H135V55.1743H131.249V47.828H123.616V55.1743H119.856ZM144.813 48.9916H148.008L149.615 51.0583L151.195 52.8992L154.174 56.6331H150.666L148.616 54.1149L147.566 52.6213L144.813 48.9916ZM154.443 46.2823C154.443 48.2216 154.075 49.8715 153.34 51.2319C152.611 52.5924 151.615 53.6315 150.353 54.3493C149.097 55.0614 147.684 55.4174 146.115 55.4174C144.535 55.4174 143.117 55.0585 141.86 54.3407C140.604 53.6228 139.611 52.5837 138.882 51.2232C138.153 49.8628 137.788 48.2158 137.788 46.2823C137.788 44.3429 138.153 42.693 138.882 41.3326C139.611 39.9722 140.604 38.9359 141.86 38.2239C143.117 37.506 144.535 37.1471 146.115 37.1471C147.684 37.1471 149.097 37.506 150.353 38.2239C151.615 38.9359 152.611 39.9722 153.34 41.3326C154.075 42.693 154.443 44.3429 154.443 46.2823ZM150.631 46.2823C150.631 45.026 150.443 43.9666 150.066 43.1041C149.696 42.2415 149.172 41.5873 148.495 41.1416C147.817 40.6958 147.024 40.4729 146.115 40.4729C145.207 40.4729 144.413 40.6958 143.736 41.1416C143.059 41.5873 142.532 42.2415 142.156 43.1041C141.785 43.9666 141.6 45.026 141.6 46.2823C141.6 47.5385 141.785 48.5979 142.156 49.4605C142.532 50.323 143.059 50.9772 143.736 51.423C144.413 51.8687 145.207 52.0916 146.115 52.0916C147.024 52.0916 147.817 51.8687 148.495 51.423C149.172 50.9772 149.696 50.323 150.066 49.4605C150.443 48.5979 150.631 47.5385 150.631 46.2823Z" fill="white"/>
</svg>
