<svg width="204" height="65" viewBox="0 0 204 65" fill="none" xmlns="http://www.w3.org/2000/svg">
<path fill-rule="evenodd" clip-rule="evenodd" d="M35.8394 41.9688C37.0692 42.9742 37.2663 44.8051 36.2795 46.0582L24.6025 60.8885C24.0943 61.5336 23.3408 61.9279 22.5301 61.9727C21.7194 62.0174 20.9285 61.7083 20.3549 61.1228L14.9435 55.5978C13.8298 54.4608 13.8315 52.6188 14.9476 51.484C16.0635 50.349 17.8712 50.3509 18.9851 51.488L22.1442 54.7136L31.8261 42.4174C32.8128 41.1641 34.6096 40.9633 35.8394 41.9688Z" fill="#FFD527"/>
<path fill-rule="evenodd" clip-rule="evenodd" d="M51.4744 42.2338C52.7187 43.2207 52.9421 45.0485 51.9736 46.3161L40.8658 60.8554C40.3628 61.5143 39.6062 61.9209 38.7885 61.9721C37.9709 62.0233 37.1712 61.7144 36.5925 61.1235L33.7443 58.2157C32.6306 57.0784 32.6322 55.2367 33.7484 54.1017C34.8643 52.9667 36.672 52.9686 37.7859 54.1059L38.348 54.68L47.468 42.7424C48.4365 41.4746 50.2303 41.2469 51.4744 42.2338Z" fill="#FFD527"/>
<path fill-rule="evenodd" clip-rule="evenodd" d="M30.0686 9.05434C18.2806 9.05434 8.71459 18.8126 8.71459 30.8622C8.71459 35.463 10.1065 39.7226 12.4829 43.2372C13.3774 44.5602 13.0499 46.3716 11.7516 47.2831C10.4532 48.1946 8.67555 47.8611 7.78101 46.538C4.76877 42.083 3.00488 36.6784 3.00488 30.8622C3.00488 15.6104 15.1164 3.23633 30.0686 3.23633C45.0208 3.23633 57.1323 15.6104 57.1323 30.8622C57.1323 32.071 57.056 33.2628 56.908 34.433C56.7063 36.0265 55.2751 37.1517 53.7115 36.9461C52.1477 36.7407 51.0434 35.2822 51.2452 33.689C51.3621 32.7648 51.4226 31.8214 51.4226 30.8622C51.4226 18.8126 41.8566 9.05434 30.0686 9.05434Z" fill="white"/>
<path d="M22.3796 32.3165C25.2108 32.3165 27.506 29.973 27.506 27.0823C27.506 24.1916 25.2108 21.8481 22.3796 21.8481C19.5481 21.8481 17.2529 24.1916 17.2529 27.0823C17.2529 29.973 19.5481 32.3165 22.3796 32.3165Z" fill="white"/>
<path d="M72.1658 4.11831H76.8028L81.7004 16.067H81.9088L86.8064 4.11831H91.4434V21.9023H87.7963V10.3271H87.6487L83.0464 21.8155H80.5628L75.9605 10.2837H75.8129V21.9023H72.1658V4.11831ZM100.498 22.1629C99.1494 22.1629 97.9829 21.8763 96.9987 21.3032C96.0204 20.7243 95.2649 19.9196 94.7323 18.8891C94.1997 17.8529 93.9334 16.6517 93.9334 15.2854C93.9334 13.9076 94.1997 12.7035 94.7323 11.6731C95.2649 10.6368 96.0204 9.83213 96.9987 9.25901C97.9829 8.6801 99.1494 8.39065 100.498 8.39065C101.847 8.39065 103.011 8.6801 103.989 9.25901C104.973 9.83213 105.732 10.6368 106.264 11.6731C106.797 12.7035 107.063 13.9076 107.063 15.2854C107.063 16.6517 106.797 17.8529 106.264 18.8891C105.732 19.9196 104.973 20.7243 103.989 21.3032C103.011 21.8763 101.847 22.1629 100.498 22.1629ZM100.516 19.2973C101.129 19.2973 101.642 19.1236 102.053 18.7762C102.464 18.4231 102.773 17.9426 102.982 17.3348C103.196 16.7269 103.303 16.0351 103.303 15.2594C103.303 14.4836 103.196 13.7919 102.982 13.184C102.773 12.5761 102.464 12.0957 102.053 11.7425C101.642 11.3894 101.129 11.2128 100.516 11.2128C99.8962 11.2128 99.3752 11.3894 98.9526 11.7425C98.5357 12.0957 98.2202 12.5761 98.006 13.184C97.7976 13.7919 97.6934 14.4836 97.6934 15.2594C97.6934 16.0351 97.7976 16.7269 98.006 17.3348C98.2202 17.9426 98.5357 18.4231 98.9526 18.7762C99.3752 19.1236 99.8962 19.2973 100.516 19.2973ZM109.538 21.9023V4.11831H113.237V10.8047H113.35C113.512 10.4458 113.747 10.0811 114.053 9.71056C114.366 9.33427 114.771 9.02166 115.269 8.77273C115.773 8.51801 116.398 8.39065 117.145 8.39065C118.117 8.39065 119.015 8.64537 119.837 9.15481C120.659 9.65846 121.316 10.4197 121.808 11.4386C122.3 12.4517 122.546 13.7224 122.546 15.2507C122.546 16.7385 122.306 17.9947 121.825 19.0194C121.35 20.0383 120.702 20.8111 119.88 21.3379C119.064 21.8589 118.149 22.1194 117.136 22.1194C116.418 22.1194 115.807 22.0008 115.304 21.7634C114.806 21.5261 114.398 21.2279 114.079 20.869C113.761 20.5043 113.518 20.1367 113.35 19.7662H113.185V21.9023H109.538ZM113.159 15.2333C113.159 16.0264 113.269 16.7182 113.489 17.3087C113.709 17.8992 114.027 18.3594 114.444 18.6894C114.861 19.0136 115.367 19.1757 115.964 19.1757C116.566 19.1757 117.075 19.0107 117.492 18.6807C117.909 18.345 118.224 17.8818 118.439 17.2913C118.659 16.6951 118.769 16.0091 118.769 15.2333C118.769 14.4634 118.661 13.7861 118.447 13.2014C118.233 12.6167 117.918 12.1593 117.501 11.8294C117.084 11.4994 116.572 11.3344 115.964 11.3344C115.362 11.3344 114.852 11.4936 114.435 11.812C114.024 12.1304 113.709 12.5819 113.489 13.1666C113.269 13.7513 113.159 14.4402 113.159 15.2333ZM125.014 21.9023V8.56432H128.713V21.9023H125.014ZM126.873 6.84497C126.323 6.84497 125.851 6.66261 125.457 6.2979C125.069 5.9274 124.875 5.48454 124.875 4.96931C124.875 4.45987 125.069 4.0228 125.457 3.65808C125.851 3.28758 126.323 3.10233 126.873 3.10233C127.422 3.10233 127.891 3.28758 128.279 3.65808C128.673 4.0228 128.87 4.45987 128.87 4.96931C128.87 5.48454 128.673 5.9274 128.279 6.2979C127.891 6.66261 127.422 6.84497 126.873 6.84497ZM148.089 13.0103C148.089 14.9497 147.721 16.5996 146.986 17.96C146.257 19.3204 145.261 20.3596 143.999 21.0774C142.743 21.7895 141.33 22.1455 139.761 22.1455C138.181 22.1455 136.762 21.7866 135.506 21.0687C134.25 20.3509 133.257 19.3117 132.528 17.9513C131.798 16.5909 131.434 14.9439 131.434 13.0103C131.434 11.071 131.798 9.42111 132.528 8.06067C133.257 6.70024 134.25 5.664 135.506 4.95194C136.762 4.2341 138.181 3.87517 139.761 3.87517C141.33 3.87517 142.743 4.2341 143.999 4.95194C145.261 5.664 146.257 6.70024 146.986 8.06067C147.721 9.42111 148.089 11.071 148.089 13.0103ZM144.277 13.0103C144.277 11.7541 144.089 10.6947 143.712 9.83213C143.342 8.96956 142.818 8.31539 142.14 7.86963C141.463 7.42388 140.67 7.201 139.761 7.201C138.852 7.201 138.059 7.42388 137.382 7.86963C136.705 8.31539 136.178 8.96956 135.801 9.83213C135.431 10.6947 135.246 11.7541 135.246 13.0103C135.246 14.2666 135.431 15.326 135.801 16.1885C136.178 17.0511 136.705 17.7053 137.382 18.151C138.059 18.5968 138.852 18.8197 139.761 18.8197C140.67 18.8197 141.463 18.5968 142.14 18.151C142.818 17.7053 143.342 17.0511 143.712 16.1885C144.089 15.326 144.277 14.2666 144.277 13.0103ZM157.977 8.56432V11.3431H149.745V8.56432H157.977ZM151.629 21.9023V7.60044C151.629 6.63367 151.818 5.83188 152.194 5.19508C152.576 4.55828 153.097 4.08069 153.757 3.76229C154.417 3.44389 155.167 3.28469 156.006 3.28469C156.573 3.28469 157.091 3.32811 157.56 3.41494C158.035 3.50178 158.388 3.57993 158.62 3.6494L157.96 6.42815C157.815 6.38184 157.636 6.33842 157.421 6.2979C157.213 6.25738 156.999 6.23712 156.779 6.23712C156.235 6.23712 155.856 6.36448 155.641 6.61919C155.427 6.86812 155.32 7.21836 155.32 7.66991V21.9023H151.629ZM167.41 8.56432V11.3431H159.178V8.56432H167.41ZM161.062 21.9023V7.60044C161.062 6.63367 161.25 5.83188 161.627 5.19508C162.009 4.55828 162.53 4.08069 163.19 3.76229C163.85 3.44389 164.599 3.28469 165.439 3.28469C166.006 3.28469 166.524 3.32811 166.993 3.41494C167.468 3.50178 167.821 3.57993 168.052 3.6494L167.392 6.42815C167.248 6.38184 167.068 6.33842 166.854 6.2979C166.646 6.25738 166.431 6.23712 166.211 6.23712C165.667 6.23712 165.288 6.36448 165.074 6.61919C164.86 6.86812 164.753 7.21836 164.753 7.66991V21.9023H161.062ZM169.67 21.9023V8.56432H173.369V21.9023H169.67ZM171.528 6.84497C170.978 6.84497 170.506 6.66261 170.113 6.2979C169.725 5.9274 169.531 5.48454 169.531 4.96931C169.531 4.45987 169.725 4.0228 170.113 3.65808C170.506 3.28758 170.978 3.10233 171.528 3.10233C172.078 3.10233 172.547 3.28758 172.935 3.65808C173.328 4.0228 173.525 4.45987 173.525 4.96931C173.525 5.48454 173.328 5.9274 172.935 6.2979C172.547 6.66261 172.078 6.84497 171.528 6.84497ZM182.359 22.1629C180.992 22.1629 179.817 21.8734 178.833 21.2945C177.855 20.7098 177.102 19.8993 176.575 18.8631C176.054 17.8268 175.794 16.6343 175.794 15.2854C175.794 13.9192 176.057 12.7209 176.584 11.6904C177.117 10.6542 177.872 9.8466 178.85 9.26769C179.829 8.683 180.992 8.39065 182.341 8.39065C183.505 8.39065 184.524 8.60195 185.398 9.02455C186.272 9.44716 186.964 10.0405 187.473 10.8047C187.983 11.5689 188.263 12.4662 188.316 13.4966H184.825C184.726 12.8309 184.466 12.2954 184.043 11.8901C183.626 11.4791 183.079 11.2736 182.402 11.2736C181.829 11.2736 181.328 11.4299 180.9 11.7425C180.477 12.0493 180.147 12.498 179.91 13.0885C179.672 13.679 179.554 14.3939 179.554 15.2333C179.554 16.0843 179.67 16.808 179.901 17.4042C180.139 18.0005 180.471 18.455 180.9 18.7676C181.328 19.0802 181.829 19.2365 182.402 19.2365C182.825 19.2365 183.204 19.1496 183.54 18.976C183.881 18.8023 184.162 18.5505 184.382 18.2205C184.608 17.8847 184.755 17.4824 184.825 17.0135H188.316C188.258 18.0323 187.98 18.9297 187.482 19.7054C186.99 20.4753 186.31 21.0774 185.441 21.5116C184.573 21.9458 183.545 22.1629 182.359 22.1629ZM196.763 22.1629C195.391 22.1629 194.21 21.885 193.22 21.3292C192.235 20.7677 191.477 19.9746 190.945 18.9499C190.412 17.9195 190.146 16.7009 190.146 15.2941C190.146 13.9221 190.412 12.718 190.945 11.6817C191.477 10.6455 192.227 9.83792 193.194 9.25901C194.166 8.6801 195.307 8.39065 196.615 8.39065C197.495 8.39065 198.314 8.53248 199.072 8.81615C199.837 9.09402 200.502 9.51373 201.07 10.0753C201.643 10.6368 202.088 11.3431 202.407 12.1941C202.725 13.0393 202.884 14.0292 202.884 15.1639V16.1798H191.622V13.8874H199.402C199.402 13.3548 199.287 12.883 199.055 12.4719C198.823 12.0609 198.502 11.7396 198.091 11.5081C197.686 11.2707 197.214 11.152 196.676 11.152C196.114 11.152 195.616 11.2823 195.182 11.5428C194.754 11.7975 194.418 12.142 194.175 12.5761C193.932 13.0045 193.807 13.4821 193.801 14.0089V16.1885C193.801 16.8485 193.923 17.4187 194.166 17.8992C194.415 18.3797 194.765 18.7502 195.217 19.0107C195.668 19.2712 196.204 19.4015 196.823 19.4015C197.234 19.4015 197.611 19.3436 197.952 19.2278C198.294 19.112 198.586 18.9383 198.829 18.7068C199.072 18.4752 199.258 18.1915 199.385 17.8558L202.806 18.0816C202.633 18.9036 202.277 19.6214 201.738 20.2351C201.206 20.8429 200.517 21.3176 199.672 21.6592C198.832 21.995 197.862 22.1629 196.763 22.1629Z" fill="white"/>
<rect x="70.6201" y="30.3481" width="133.38" height="34.4566" rx="8.89201" fill="white"/>
<path d="M119.856 56.0767V38.2926H123.616V45.6303H131.249V38.2926H135V56.0767H131.249V48.7303H123.616V56.0767H119.856ZM144.813 49.8939H148.008L149.615 51.9606L151.195 53.8016L154.174 57.5355H150.666L148.616 55.0173L147.566 53.5237L144.813 49.8939ZM154.443 47.1846C154.443 49.124 154.075 50.7739 153.34 52.1343C152.611 53.4947 151.615 54.5339 150.353 55.2517C149.097 55.9638 147.684 56.3198 146.115 56.3198C144.535 56.3198 143.117 55.9609 141.86 55.243C140.604 54.5252 139.611 53.4861 138.882 52.1256C138.153 50.7652 137.788 49.1182 137.788 47.1846C137.788 45.2453 138.153 43.5954 138.882 42.235C139.611 40.8746 140.604 39.8383 141.86 39.1263C143.117 38.4084 144.535 38.0495 146.115 38.0495C147.684 38.0495 149.097 38.4084 150.353 39.1263C151.615 39.8383 152.611 40.8746 153.34 42.235C154.075 43.5954 154.443 45.2453 154.443 47.1846ZM150.631 47.1846C150.631 45.9284 150.443 44.869 150.066 44.0064C149.696 43.1439 149.172 42.4897 148.495 42.044C147.817 41.5982 147.024 41.3753 146.115 41.3753C145.207 41.3753 144.413 41.5982 143.736 42.044C143.059 42.4897 142.532 43.1439 142.156 44.0064C141.785 44.869 141.6 45.9284 141.6 47.1846C141.6 48.4409 141.785 49.5003 142.156 50.3628C142.532 51.2254 143.059 51.8796 143.736 52.3253C144.413 52.7711 145.207 52.994 146.115 52.994C147.024 52.994 147.817 52.7711 148.495 52.3253C149.172 51.8796 149.696 51.2254 150.066 50.3628C150.443 49.5003 150.631 48.4409 150.631 47.1846Z" fill="#7263E1"/>
</svg>
