<svg width="654" height="426" viewBox="0 0 654 426" fill="none" xmlns="http://www.w3.org/2000/svg">
<g clip-path="url(#clip0_2401_5517)">
<path d="M0 0H642C648.627 0 654 5.37258 654 12V414C654 420.627 648.627 426 642 426H0V0Z" fill="#F1EFFC"/>
<path opacity="0.4" d="M456.322 233.173V204.017C456.322 197.104 450.279 195 446.05 195H422.79C410.263 195 399.699 199.982 395.751 201.844L395.603 201.913C356.635 220.28 337 260.827 337 280.665V423.439C337 446.283 359.052 455 367.51 455H447.562C472.029 455 479.581 432.757 479.581 423.439V344.688C478.614 321.603 463.571 312.827 447.562 312.827H400.436C390.77 312.827 386.139 303.609 385.031 299C379.715 261.969 407.082 241.89 423.999 241.89H447.562C453.602 241.89 456.322 235.879 456.322 233.173Z" fill="#D3CFF6"/>
<path opacity="0.4" d="M630.9 233.173V204.017C630.9 197.104 624.857 195 620.628 195H597.368C584.841 195 574.277 199.982 570.329 201.844L570.181 201.913C531.213 220.28 511.578 260.827 511.578 280.665V423.439C511.578 446.283 533.63 455 542.088 455H622.14C646.607 455 654.159 432.757 654.159 423.439V344.688C653.192 321.603 638.149 312.827 622.14 312.827H575.014C565.348 312.827 560.717 303.609 559.61 299C554.293 261.969 581.66 241.89 598.578 241.89H622.14C628.18 241.89 630.9 235.879 630.9 233.173Z" fill="#D3CFF6"/>
</g>
<path d="M0.5 0.5H642C648.351 0.5 653.5 5.64873 653.5 12V414C653.5 420.351 648.351 425.5 642 425.5H0.5V0.5Z" stroke="#9C98B3"/>
<defs>
<clipPath id="clip0_2401_5517">
<path d="M0 0H642C648.627 0 654 5.37258 654 12V414C654 420.627 648.627 426 642 426H0V0Z" fill="white"/>
</clipPath>
</defs>
</svg>
